<?xml version="1.0" standalone="no"?><!DOCTYPE svg PUBLIC "-//W3C//DTD SVG 1.1//EN" "http://www.w3.org/Graphics/SVG/1.1/DTD/svg11.dtd"><svg t="1560000625783" class="icon" style="" viewBox="0 0 1025 1024" version="1.1" xmlns="http://www.w3.org/2000/svg" p-id="3199" xmlns:xlink="http://www.w3.org/1999/xlink" width="26.025390625" height="26"><defs><style type="text/css"></style></defs><path d="M1025.415237 799.930756c0-287.975072-255.977842-223.980612-255.977841-447.961223 0-18.558394-1.791845-34.42902-5.055563-47.931851-16.830543-113.014217-92.152023-203.694368-189.743575-231.339975 0.863925-3.935659 1.311886-8.031305 1.311886-12.222942 0-33.277119-28.797507-60.506762-63.99446-60.506762S447.961223 27.197646 447.961223 60.474765c0 4.191637 0.447961 8.255285 1.311887 12.222942-109.462525 31.005316-190.895476 141.299769-193.231274 273.416333L255.977842 351.969533c0 223.980612-255.977842 159.986151-255.977842 447.961223 0 76.217402 170.577234 139.987882 398.941467 156.082489a127.924926 127.924926 0 0 0 226.028434 0C853.334133 939.918638 1023.911368 876.180156 1023.911368 799.930756l-0.031998-0.671942 1.535867 0.671942z m-199.246752 54.107316c-54.235305 14.462748-118.133774 24.861848-186.767833 30.653347a127.988921 127.988921 0 0 0-254.953931 0c-68.602062-5.759501-132.532528-16.190599-186.767833-30.653347-74.617541-19.902277-110.294453-42.172349-123.349322-54.107316 13.05487-11.90297 48.731782-34.173042 123.349322-54.107316 86.776488-23.165995 198.35083-35.900892 314.212801-35.900893s227.46831 12.734898 314.212801 35.900893c74.617541 19.902277 110.294453 42.172349 123.349323 54.107316-13.05487 11.90297-48.731782 34.173042-123.349323 54.107316z" p-id="3200" fill="#ffffff"></path></svg>