<?xml version="1.0" standalone="no"?><!DOCTYPE svg PUBLIC "-//W3C//DTD SVG 1.1//EN" "http://www.w3.org/Graphics/SVG/1.1/DTD/svg11.dtd"><svg t="1560000560934" class="icon" style="" viewBox="0 0 1024 1024" version="1.1" xmlns="http://www.w3.org/2000/svg" p-id="2415" xmlns:xlink="http://www.w3.org/1999/xlink" width="26" height="26"><defs><style type="text/css"></style></defs><path d="M614.825 596.244c-50.756 40.669-82.425 60.844-114.019 60.844-30.338 0-60.975-18.9-108.356-55.819l-282.037 248.194h794.269l-286.631-255.637c-1.050 0.769-2.231 1.725-3.225 2.419z" p-id="2416" fill="#ffffff"></path><path d="M280.325 514.513c-66.956-51.638-144.188-111.394-218.325-170.006v467.869c0 1.5 0.712 2.756 0.863 4.144l284.344-250.238c-20.606-16.087-42.712-33.094-66.881-51.769z" p-id="2417" fill="#ffffff"></path><path d="M959.787 823.25c1.144-3.394 2.213-6.956 2.213-10.875v-487.725c-89.006 69.225-217.819 169.556-299.175 233.756l296.962 264.844z" p-id="2418" fill="#ffffff"></path><path d="M905.75 174.519h-787.5c-20.531 0-56.25 35.756-56.25 56.25v44.325c82.95 66.038 173.044 135.544 249.375 194.419 42.094 32.494 79.819 61.688 109.594 84.938 80.25 62.944 80.25 62.944 162.169-2.55 74.081-59.212 273.394-214.313 378.863-296.344v-24.731c0-20.606-35.7-56.306-56.25-56.306z" p-id="2419" fill="#ffffff"></path></svg>