<?xml version="1.0" standalone="no"?><!DOCTYPE svg PUBLIC "-//W3C//DTD SVG 1.1//EN" "http://www.w3.org/Graphics/SVG/1.1/DTD/svg11.dtd"><svg t="1560784244162" class="icon" style="" viewBox="0 0 1024 1024" version="1.1" xmlns="http://www.w3.org/2000/svg" p-id="2014" xmlns:xlink="http://www.w3.org/1999/xlink" width="50" height="50"><defs><style type="text/css"></style></defs><path d="M351.4368 466.944L20.8896 196.8128C15.1552 191.8976 6.144 196.1984 6.144 203.776v608.256c0 1.2288 0 2.4576 0.2048 3.6864 0.4096 7.9872 10.0352 11.4688 15.5648 5.7344L352.256 480.256c3.4816-3.8912 3.2768-10.0352-0.8192-13.312zM57.7536 143.36l448.9216 359.8336c3.2768 2.6624 7.9872 2.6624 11.264 0L967.0656 143.36c6.7584-5.3248 2.8672-15.9744-5.7344-15.9744H63.488c-8.3968 0-12.288 10.6496-5.7344 15.9744z m563.2 374.5792c-3.2768-3.4816-8.8064-3.6864-12.4928-0.6144l-90.112 77.2096c-3.4816 2.8672-8.192 2.8672-11.6736 0.2048l-92.7744-76.8c-3.6864-3.072-9.0112-2.6624-12.288 0.6144L56.5248 871.8336c-5.5296 5.7344-1.6384 15.36 6.3488 15.36h890.2656c7.9872 0 11.8784-9.4208 6.5536-15.1552L620.9536 517.9392z m397.9264-312.7296c0-7.5776-8.8064-11.8784-14.7456-6.9632L675.0208 465.92c-4.096 3.4816-4.5056 9.4208-0.8192 13.312L1003.52 821.4528c5.5296 5.7344 15.1552 2.048 15.5648-5.7344 0.2048-1.2288 0.2048-2.4576 0.2048-3.4816l-0.4096-607.0272z m0 0" fill="#ffffff" p-id="2015"></path></svg>