<?xml version="1.0" standalone="no"?><!DOCTYPE svg PUBLIC "-//W3C//DTD SVG 1.1//EN" "http://www.w3.org/Graphics/SVG/1.1/DTD/svg11.dtd"><svg t="1560075124984" class="icon" style="" viewBox="0 0 1024 1024" version="1.1" xmlns="http://www.w3.org/2000/svg" p-id="8018" xmlns:xlink="http://www.w3.org/1999/xlink" width="20" height="20"><defs><style type="text/css"></style></defs><path d="M487.509333 85.333333H213.333333v853.333334h597.333334V385.365333H555.776a68.266667 68.266667 0 0 1-68.266667-68.266666V85.333333zM213.333333 0h306.005334a85.333333 85.333333 0 0 1 60.330666 25.002667l291.328 291.328A85.333333 85.333333 0 0 1 896 376.661333V938.666667a85.333333 85.333333 0 0 1-85.333333 85.333333H213.333333a85.333333 85.333333 0 0 1-85.333333-85.333333V85.333333a85.333333 85.333333 0 0 1 85.333333-85.333333z m359.509334 128v170.666667H725.333333l-152.490666-170.666667zM317.269333 487.594667h238.933334a29.866667 29.866667 0 0 1 0 59.733333h-238.933334a29.866667 29.866667 0 1 1 0-59.733333z m8.192 271.36h273.066667a34.133333 34.133333 0 1 1 0 68.266666h-273.066667a34.133333 34.133333 0 1 1 0-68.266666z m-6.826666-140.117334h358.4a34.133333 34.133333 0 1 1 0 68.266667h-358.4a34.133333 34.133333 0 1 1 0-68.266667z" fill="#ffffff" p-id="8019"></path></svg>