<?xml version="1.0" standalone="no"?><!DOCTYPE svg PUBLIC "-//W3C//DTD SVG 1.1//EN" "http://www.w3.org/Graphics/SVG/1.1/DTD/svg11.dtd"><svg t="1560074295832" class="icon" style="" viewBox="0 0 1024 1024" version="1.1" xmlns="http://www.w3.org/2000/svg" p-id="5942" xmlns:xlink="http://www.w3.org/1999/xlink" width="20" height="20"><defs><style type="text/css"></style></defs><path d="M514.244622 85.952604c132.366703 0 264.727267-0.007163 397.092947 0.027629 6.120394 0.002047 12.331863-0.191358 18.340717 0.743944 21.123087 3.281743 30.098505 13.763468 30.150694 35.307134 0.132006 53.661154 0.049119 107.322307 0.049119 160.983461 0 204.420763 0.004093 408.845619-0.00921 613.265358 0 29.021987-9.788947 39.587624-38.615483 41.615816-4.578272 0.325411-9.196453 0.115634-13.794168 0.115634-262.681678 0.004093-525.366426 0.004093-788.051173 0.004093-1.531889 0-3.065825 0.004093-4.599761-0.004093-41.443901-0.157589-50.65468-9.239432-50.65468-50.104141-0.01228-250.930029-0.008186-501.861082 0.00614-752.790088 0-6.129604-0.297782-12.31549 0.394996-18.381649 1.735527-15.223726 9.127891-25.465998 25.224498-28.514427 8.100492-1.531889 16.110933-2.304486 24.310685-2.301416C247.472789 85.96693 380.860752 85.952604 514.244622 85.952604zM469.020628 832.788074c10.657734-3.13234 21.115923-7.682983 30.875195-13.030781 41.670052-22.824845 74.777077-56.507992 109.880573-87.662549 5.951549-5.282307 9.114588-10.302647 0.721431-15.211447-6.79373-3.975545-8.887414-20.719904-22.845311-6.855128-20.979824 20.847817-43.123147 40.699957-68.472488 56.373938-5.346775 3.304256-11.126408 8.352225-18.184151 3.797489-6.819313-4.40124-8.293897-11.484565-7.462972-18.895349 1.314948-11.638061 2.553149-23.351847 4.930289-34.806737 15.758915-75.962066 39.143509-149.890822 60.319807-224.411049 8.776897-30.878265 17.445324-61.809741 25.094538-92.981694 7.529487-30.68486-4.081968-44.187385-35.956933-44.13315-10.866489 0.020466-21.227464 2.167363-31.494295 5.460362-57.092299 18.317181-98.985432 57.743122-139.03252 99.79282-3.850701 4.042059-5.421476 8.608052 0.642636 10.673084 8.245801 2.816139 11.561313 20.273742 24.447808 8.928347 16.853853-14.835893 33.275871-30.163997 50.001811-45.144176 7.326872-6.563486 15.895015-11.184737 25.446555-13.486152 9.830903-2.365884 15.886829 0.572028 15.779382 12.088316-0.080841 8.356318-2.493797 16.086373-4.758374 23.904433-16.467043 56.773028-33.655518 113.349581-49.275263 170.354899-14.153348 51.65138-27.475771 103.589286-31.834033 153.856134C406.495596 824.367287 431.10304 843.919599 469.020628 832.788074zM598.043167 290.614867c27.855418 0.170892 54.731532-30.015617 54.507428-61.219293-0.166799-23.50739-15.977903-39.786145-38.864146-40.017412-30.407544-0.310062-53.070706 24.625864-53.106522 58.447157C560.548204 273.458115 575.448566 290.475697 598.043167 290.614867z" p-id="5943" fill="#ffffff"></path></svg>