<?xml version="1.0" standalone="no"?><!DOCTYPE svg PUBLIC "-//W3C//DTD SVG 1.1//EN" "http://www.w3.org/Graphics/SVG/1.1/DTD/svg11.dtd"><svg t="1560784330813" class="icon" style="" viewBox="0 0 1024 1024" version="1.1" xmlns="http://www.w3.org/2000/svg" p-id="3653" xmlns:xlink="http://www.w3.org/1999/xlink" width="50" height="50"><defs><style type="text/css"></style></defs><path d="M829.5 170.6H196.4C125 170.6 66.5 229 66.5 300.5v313.8c0 71.4 58.4 129.9 129.9 129.9h23.5c19 0 35 14.5 36.8 33.4l8.5 87.8c1.6 16.4 22 23.2 33 10.9l63.9-70.9c35.1-38.9 85-61.2 137.5-61.2h329.8c71.4 0 129.9-58.4 129.9-129.9V300.5c0-71.4-58.4-129.9-129.8-129.9zM538.6 483.7H251.8c-20.9 0-37.9-17-37.9-37.9s17-37.9 37.9-37.9h286.8c20.9 0 37.9 17 37.9 37.9s-17 37.9-37.9 37.9z m235.4 0H669.8c-20.9 0-37.9-17-37.9-37.9s17-37.9 37.9-37.9H774c20.9 0 37.9 17 37.9 37.9s-17 37.9-37.9 37.9z" p-id="3654" fill="#ffffff"></path></svg>