<?xml version="1.0" standalone="no"?><!DOCTYPE svg PUBLIC "-//W3C//DTD SVG 1.1//EN" "http://www.w3.org/Graphics/SVG/1.1/DTD/svg11.dtd"><svg t="1560000691629" class="icon" style="" viewBox="0 0 1024 1024" version="1.1" xmlns="http://www.w3.org/2000/svg" p-id="4003" xmlns:xlink="http://www.w3.org/1999/xlink" width="26" height="26"><defs><style type="text/css"></style></defs><path d="M182.108083 681.644725c76.188216-3.300162 157.609621-9.452279 144.001695-36.604686-9.92914-19.888979-52.620451-47.25935-94.615914-74.853825-113.458051-74.508971-117.80301-110.698195 2.219551-179.527816 42.185798-24.169469 90.873684-43.391253 144.763035-55.951313l-36.666084 87.415932c-43.866067 12.496615-72.921823 39.141462-69.368904 67.624167 4.598738 36.539194 60.901045 62.358233 125.764332 57.664328 64.863287-4.665253 113.803929-38.063921 109.206214-74.571393-2.029216-16.396435-14.527878-30.67258-33.621748-40.97932l24.232914-112.790856c198.496843-6.249331 380.90629 84.656075 434.255335 228.02332 63.089897 169.44211-78.026074 348.144118-315.058582 399.018809-203.695239 43.741223-412.086429-21.12411-506.637876-147.776671C33.221124 694.712345 78.451258 685.766602 182.108083 681.644725L182.108083 681.644725 182.108083 681.644725zM353.768721 435.953c-11.673877 26.579355-22.202675 53.126988-31.655977 79.580476 17.256012 7.580652 40.409338 12.21009 65.847707 12.21009 14.685467 0 28.579919-1.52268 41.043788-4.311189 5.202489-19.031449 9.990538-38.255279 14.432711-57.728796C413.52571 455.80821 383.677914 445.912839 353.768721 435.953L353.768721 435.953 353.768721 435.953zM439.344748 257.440303c14.240329 4.758374 28.41926 9.451256 42.660612 14.208607 129.665175-52.842509 17.605983-166.139901 46.721091-208.642924C481.370911 78.103846 374.575606 138.242528 439.344748 257.440303L439.344748 257.440303 439.344748 257.440303zM447.337793 251.351632c-38.507012-91.571578 1.300622-138.54645 66.070788-171.311691-54.683437 44.533262-77.966723 100.991112-55.286164 174.926008C454.50503 253.761518 450.889689 252.556063 447.337793 251.351632L447.337793 251.351632 447.337793 251.351632zM360.142895 426.7545l85.386716 28.355815 34.605146-173.562964L435.727361 266.830161 360.142895 426.7545 360.142895 426.7545 360.142895 426.7545zM377.399931 418.632519l27.341718 9.136078 48.686862-144.921647-14.179954-4.724605L377.399931 418.632519 377.399931 418.632519 377.399931 418.632519zM277.864984 741.593072c-40.537252 0-73.396637 17.190521-73.396637 38.439474 0 21.255093 32.859385 38.476313 73.396637 38.476313 40.536228 0 73.460082-17.22122 73.460082-38.476313C351.326089 758.783593 318.401212 741.593072 277.864984 741.593072L277.864984 741.593072 277.864984 741.593072zM805.471426 542.272467c-40.537252 0-73.429383 17.191544-73.429383 38.442544 0 21.253046 32.890085 38.442544 73.429383 38.442544 40.535205 0 73.429383-17.190521 73.429383-38.442544C878.900809 559.464011 846.006632 542.272467 805.471426 542.272467L805.471426 542.272467 805.471426 542.272467zM790.182208 664.200424c-40.534182 0-73.461105 17.220197-73.461105 38.471197 0 21.219277 32.926924 38.47529 73.461105 38.47529 40.567951 0 73.42836-17.252943 73.42836-38.47529C863.609545 681.421644 830.752206 664.200424 790.182208 664.200424L790.182208 664.200424 790.182208 664.200424zM666.100192 762.938216c-40.568974 0-73.461105 17.223267-73.461105 38.476313 0 21.219277 32.893154 38.442544 73.461105 38.442544 40.536228 0 73.42836-17.223267 73.42836-38.442544C739.528552 780.161483 706.636421 762.938216 666.100192 762.938216L666.100192 762.938216 666.100192 762.938216zM461.483978 802.809295c-40.599673 0-73.459059 17.191544-73.459059 38.442544 0 21.253046 32.858362 38.442544 73.459059 38.442544 40.537252 0 73.427336-17.190521 73.427336-38.442544C534.911314 819.999816 502.02123 802.809295 461.483978 802.809295L461.483978 802.809295z" p-id="4004" fill="#ffffff"></path></svg>