<?xml version="1.0" standalone="no"?><!DOCTYPE svg PUBLIC "-//W3C//DTD SVG 1.1//EN" "http://www.w3.org/Graphics/SVG/1.1/DTD/svg11.dtd"><svg t="1560074955239" class="icon" style="" viewBox="0 0 1146 1024" version="1.1" xmlns="http://www.w3.org/2000/svg" p-id="7220" xmlns:xlink="http://www.w3.org/1999/xlink" width="22.3828125" height="20"><defs><style type="text/css"></style></defs><path d="M1064.96 22.4H81.92C36.8 22.4 0 59.2 0 104.32v819.2c0 45.12 36.8 81.92 81.92 81.92h983.04c45.12 0 81.92-36.8 81.92-81.92v-819.2c0-45.12-36.8-81.92-81.92-81.92zM368.64 923.52H81.92v-204.8h286.72v204.8z m0-286.72H81.92V432h286.72v204.8z m0-286.72H81.92v-204.8h286.72v204.8z m327.68 573.44H450.56v-204.8h245.76v204.8z m0-286.72H450.56V432h245.76v204.8z m0-286.72H450.56v-204.8h245.76v204.8z m368.64 573.44H778.24v-204.8h286.72v204.8z m0-286.72H778.24V432h286.72v204.8z m0-286.72H778.24v-204.8h286.72v204.8z" p-id="7221" fill="#ffffff"></path></svg>