<?xml version="1.0" standalone="no"?><!DOCTYPE svg PUBLIC "-//W3C//DTD SVG 1.1//EN" "http://www.w3.org/Graphics/SVG/1.1/DTD/svg11.dtd"><svg t="1560000722212" class="icon" style="" viewBox="0 0 1024 1024" version="1.1" xmlns="http://www.w3.org/2000/svg" p-id="5449" xmlns:xlink="http://www.w3.org/1999/xlink" width="26" height="26"><defs><style type="text/css"></style></defs><path d="M877.714286 0H146.285714a146.285714 146.285714 0 0 0-146.285714 146.285714v731.428572a146.285714 146.285714 0 0 0 146.285714 146.285714h731.428572a146.285714 146.285714 0 0 0 146.285714-146.285714V146.285714a146.285714 146.285714 0 0 0-146.285714-146.285714z m73.191619 877.884952a72.97219 72.97219 0 0 1-73.118476 73.020953H146.480762c-19.577905 0-38.034286-7.509333-51.858286-21.333334a72.582095 72.582095 0 0 1-21.528381-51.687619V146.383238a73.411048 73.411048 0 0 1 73.386667-73.289143h731.306667a73.191619 73.191619 0 0 1 73.142857 73.289143v731.501714z" p-id="5450" fill="#ffffff"></path><path d="M823.53981 318.878476H530.334476c-20.23619 0-36.62019 16.432762-36.62019 36.693334 0 20.260571 16.384 36.693333 36.62019 36.693333h293.205334c20.23619 0 36.62019-16.432762 36.62019-36.693333 0-20.260571-16.384-36.693333-36.62019-36.693334z m0 294.034286H530.334476c-20.23619 0-36.62019 16.432762-36.62019 36.717714 0 20.260571 16.384 36.693333 36.62019 36.693334h293.205334c20.23619 0 36.62019-16.432762 36.62019-36.693334 0-20.284952-16.384-36.717714-36.62019-36.717714z m-513.121524-91.818667a128.414476 128.414476 0 0 0-128.268191 128.585143 128.438857 128.438857 0 0 0 128.24381 128.560762 128.414476 128.414476 0 0 0 128.292571-128.560762 128.414476 128.414476 0 0 0-128.26819-128.585143z m38.912 167.594667a54.930286 54.930286 0 0 1-69.485715 6.826667 55.222857 55.222857 0 0 1-20.23619-66.950096 55.003429 55.003429 0 0 1 105.862095 21.113905c0.048762 14.628571-5.778286 28.696381-16.14019 39.009524z m45.153524-432.347429l-120.734477 121.002667-47.396571-47.542857a36.571429 36.571429 0 0 0-61.269333 16.481524c-3.388952 12.678095 0.24381 26.185143 9.48419 35.449904l73.289143 73.484191a36.571429 36.571429 0 0 0 51.785143 0l146.627047-146.968381a36.766476 36.766476 0 0 0-0.170666-51.736381 36.571429 36.571429 0 0 0-51.614476-0.170667z" p-id="5451" fill="#ffffff"></path></svg>