<?xml version="1.0" standalone="no"?><!DOCTYPE svg PUBLIC "-//W3C//DTD SVG 1.1//EN" "http://www.w3.org/Graphics/SVG/1.1/DTD/svg11.dtd"><svg t="1560075667829" class="icon" style="" viewBox="0 0 1024 1024" version="1.1" xmlns="http://www.w3.org/2000/svg" p-id="13080" xmlns:xlink="http://www.w3.org/1999/xlink" width="20" height="20"><defs><style type="text/css"></style></defs><path d="M694.24128 1024H329.76384C147.9168 1024 0 876.08832 0 694.24128V329.76384C0 147.9168 147.9168 0 329.76384 0h364.47744C876.08832 0 1024 147.9168 1024 329.76384v364.47744C1024 876.08832 876.08832 1024 694.24128 1024zM329.76384 52.08064c-153.10336 0-277.67808 124.57472-277.67808 277.6832v364.47744c0 153.09824 124.57472 277.68832 277.67808 277.68832h364.47744c153.09824 0 277.67808-124.57984 277.67808-277.68832V329.76384c0-153.10336-124.57984-277.67808-277.67808-277.67808l-364.47744-0.00512z" p-id="13081" fill="#ffffff"></path><path d="M709.92896 176.34304H253.95712c-28.01664 0-51.05664 25.25184-51.05664 55.9616v545.59744c0 30.70976 23.04 55.87968 51.05664 55.87968h275.75296c-33.89952-38.67136-54.72256-91.52-54.72256-149.45792 0-13.3376 1.10592-25.7024 3.2512-39.35232H424.97024c-13.90592 0-25.25184-12.66688-25.25184-28.0576 0-15.39072 11.27936-28.05248 25.25184-28.05248H495.0528c15.36-34.1248 38.8096-62.94016 67.58912-84.1728H424.97024c-13.90592 0-25.25184-11.904-25.25184-27.29984s11.27936-27.29984 25.25184-27.29984h196.4032c11.76576 0 21.58592 8.41728 24.42752 20.32128a180.21888 180.21888 0 0 1 26.496-1.9712c31.95904 0 61.98272 8.26368 88.96512 23.05024V232.30464c-0.07168-30.70976-23.31648-55.9616-51.33312-55.9616z m-367.83616 468.096c-14.04416 0-25.39008-12.4416-25.39008-27.83232 0-15.39584 11.34592-27.83232 25.39008-27.83232 14.04416 0 25.39008 12.43648 25.39008 27.83232s-11.34592 27.83232-25.39008 27.83232z m0-139.75552c-14.04416 0-25.39008-12.43648-25.39008-27.8272 0-15.39584 11.34592-27.83232 25.39008-27.83232 14.04416 0 25.39008 12.43648 25.39008 27.83232 0 15.39072-11.34592 27.8272-25.39008 27.8272z m0-139.75552c-14.04416 0-25.39008-12.43648-25.39008-27.83232 0-15.39072 11.34592-27.8272 25.39008-27.8272 14.04416 0 25.39008 12.43648 25.39008 27.8272 0 15.40096-11.34592 27.83232-25.39008 27.83232z m279.28064 0.2304h-196.4032c-13.90592 0-25.25184-11.904-25.25184-27.29984 0-15.39584 11.27936-27.29984 25.25184-27.29984h196.4032c13.90592 0 25.25696 11.904 25.25696 27.29984-0.07168 15.39584-11.35104 27.29984-25.25696 27.29984z" p-id="13082" fill="#ffffff"></path><path d="M672.08704 520.99072c-82.32448 0-149.01248 73.09824-149.01248 163.328 0 90.24 66.688 163.33824 149.01248 163.33824s149.01248-73.09824 149.01248-163.33824c0-90.15808-66.75968-163.328-149.01248-163.328z m86.33856 208.14848h-83.08736c-0.96768 0-2.07872 0.14848-3.0464 0.14848-14.04416 0-25.18528-12.35968-25.18528-27.67872v-111.46752c0-15.24224 11.20768-27.6736 25.25696-27.6736 14.03904 0 25.25184 12.35968 25.25184 27.6736v84.39808h60.88192c13.90592 0 25.25184 11.90912 25.25184 27.29984s-11.4176 27.29984-25.32352 27.29984z" p-id="13083" fill="#ffffff"></path></svg>