<?xml version="1.0" standalone="no"?><!DOCTYPE svg PUBLIC "-//W3C//DTD SVG 1.1//EN" "http://www.w3.org/Graphics/SVG/1.1/DTD/svg11.dtd"><svg t="1560784295698" class="icon" style="" viewBox="0 0 1613 1024" version="1.1" xmlns="http://www.w3.org/2000/svg" p-id="2827" xmlns:xlink="http://www.w3.org/1999/xlink" width="78.759765625" height="50"><defs><style type="text/css"></style></defs><path d="M1158.894942 685.503861c-71.521337-75.919641-161.513314-114.157499-263.392448-127.573163-39.769161-5.236608-79.697599-5.792683-119.698691-3.423076-47.44244 2.80832-94.027016 10.487188-139.161324 25.596228-126.27938 42.270102-211.294624 126.148046-253.134396 252.866139-19.680593 59.606237-25.900812 121.115425-23.793873 183.652933 0.178838 5.328822 1.684992 6.642165 6.918806 6.639371 299.246727-0.12854 598.490659-0.114568 897.737386-0.114568 1.97281 0 3.942825 0 6.100062 0 0.19281-1.707347 0.374443-2.771993 0.427535-3.839434 2.464615-51.103036-1.997959-101.57455-14.4859-151.218936C1239.070375 799.163966 1207.851919 737.470351 1158.894942 685.503861z" fill="#ffffff" p-id="2828"></path><path d="M664.912898 414.127961c53.981215 47.084764 117.178189 64.951825 187.961818 52.086647 60.036567-10.911929 108.934862-41.680495 145.454196-90.050658 56.180366-74.410693 68.570505-155.907852 29.575379-241.680364C982.926466 35.541312 872.057915-17.928537 765.867102 5.448979c-108.445851 23.874909-184.723169 117.007734-184.720374 234.403882C582.868046 304.022267 609.724525 365.986934 664.912898 414.127961z" fill="#ffffff" p-id="2829"></path><path d="M497.805299 588.1376c-5.82901-2.523296-10.992965-4.898492-16.263105-7.016608-39.875346-16.02838-81.463627-23.936385-124.264655-25.867279-56.417886-2.545651-111.891282 2.799937-165.470111 21.625459-68.229595 23.972711-121.417215 66.231636-155.628417 130.705627-25.400623 47.869975-35.664263 99.456434-36.144891 153.275576-0.069859 7.849324-0.008383 15.701441-0.008383 23.763135 104.994832 0 208.841186 0 312.857996 0C335.635313 761.658227 392.729431 660.273693 497.805299 588.1376z" fill="#ffffff" p-id="2830"></path><path d="M1611.380918 751.414147c-0.005589-2.484175-0.743297-5.082919-1.654254-7.432966-30.902694-79.823345-87.02438-134.299159-166.509608-165.078902-38.478172-14.899464-78.59942-21.999902-119.695896-23.726809-59.444165-2.495353-117.658817 3.884144-173.674317 25.157515-6.440972 2.445054-12.714283 5.328822-19.996354 8.402604 50.840367 34.876257 91.872573 77.590661 123.823148 128.956366 31.975724 51.40762 52.28784 107.29458 63.630098 166.794632 98.40017 0 196.126903 0 293.923494 0 0.095008-1.352464 0.21237-2.263422 0.21237-3.177174C1611.450777 838.010992 1611.47872 794.71257 1611.380918 751.414147z" fill="#ffffff" p-id="2831"></path><path d="M1296.008009 496.265026c91.92846 0.567253 168.761853-75.461368 169.178211-167.406594 0.410769-90.506137-72.675403-162.181163-165.79705-162.600315-91.934049-0.410769-165.38628 70.699799-165.908823 160.624711C1132.932655 420.887489 1204.722249 495.703362 1296.008009 496.265026z" fill="#ffffff" p-id="2832"></path><path d="M328.476194 496.267821c91.920077 0.553281 168.781413-75.550787 169.116735-167.451304 0.329733-90.587173-72.703346-162.186752-165.813816-162.5584-92.163186-0.368854-165.478494 70.881431-165.892057 161.222702C165.456726 421.016029 237.416775 495.717334 328.476194 496.267821z" fill="#ffffff" p-id="2833"></path></svg>