<?xml version="1.0" standalone="no"?><!DOCTYPE svg PUBLIC "-//W3C//DTD SVG 1.1//EN" "http://www.w3.org/Graphics/SVG/1.1/DTD/svg11.dtd"><svg t="1572360034328" class="icon" viewBox="0 0 1024 1024" version="1.1" xmlns="http://www.w3.org/2000/svg" p-id="3301" width="16" height="16" xmlns:xlink="http://www.w3.org/1999/xlink"><defs><style type="text/css"></style></defs><path d="M445.798 751.935c0-22.836 18.551-41.381 41.381-41.381s41.381 18.494 41.381 41.381-18.494 41.381-41.381 41.381-41.381-18.551-41.381-41.381zM506.349 294.209c-8.686-7.321-14.272-18.182-14.272-30.406 0-21.965 17.873-39.715 39.898-39.715 4.9 0 9.613 0.867 13.959 2.484 15.138 5.651 25.872 20.17 25.872 37.233 0 21.965-17.873 39.715-39.835 39.715-9.807 0-18.74-3.539-25.625-9.305zM598.613 592.223l-40.891 69.498-132.348-230.009 40.891-69.498 132.348 230.009zM577.46 696.399l41.014-69.68 188.192 327.046c29.604 51.435 93.565 69.553 142.834 40.45 49.329-29.034 65.334-94.31 35.734-145.755l-245.891-427.259 118.704-201.84c46.473 17.691 100.705-0.804 127.257-45.915 29.604-50.319 13.593-114.665-35.734-143.7-49.329-29.034-113.301-11.847-142.893 38.466-26.553 45.104-16.382 101.506 21.588 133.65l-108.773 184.903-91.458-158.903c-29.604-51.435-93.565-69.553-142.893-40.45-47.589 28.045-64.093 89.777-38.659 140.29l-40.948 69.68-188.252-327.113c-29.604-51.435-93.565-69.553-142.834-40.45-49.329 29.034-65.334 94.31-35.734 145.755l245.891 427.38-118.704 201.779c-46.473-17.691-100.705 0.804-127.257 45.915-29.604 50.319-13.593 114.665 35.734 143.7 49.329 29.034 113.301 11.847 142.893-38.466 26.553-45.104 16.382-101.506-21.588-133.65l108.773-184.903 91.458 158.903c29.604 51.435 93.565 69.553 142.893 40.45 47.589-28.106 64.093-89.777 38.659-140.29z" p-id="3302" fill="#8a8a8a"></path></svg>