<?xml version="1.0" standalone="no"?><!DOCTYPE svg PUBLIC "-//W3C//DTD SVG 1.1//EN" "http://www.w3.org/Graphics/SVG/1.1/DTD/svg11.dtd"><svg class="icon" width="50px" height="50.00px" viewBox="0 0 1024 1024" version="1.1" xmlns="http://www.w3.org/2000/svg"><path d="M531.370667 493.12c2.325333-1.194667 4.522667-2.282667 6.4-3.2 49.472-24.021333 107.285333-42.688 192.213333-38.826667 98.730667 4.48 180.373333-75.904 175.978667-174.634666a167.466667 167.466667 0 0 0-174.72-159.872c-185.045333 8.213333-302.549333 199.168-230.848 365.397333a22.570667 22.570667 0 0 0 30.976 11.136M502.784 517.76l-6.4 3.178667c-49.493333 24.021333-107.306667 42.688-192.213333 38.826666-98.730667-4.48-180.373333 75.925333-176 174.656a167.445333 167.445333 0 0 0 174.72 159.850667c185.066667-8.213333 302.549333-199.168 230.869333-365.376l-0.085333-0.213333a22.570667 22.570667 0 0 0-30.890667-10.922667" fill="#4B71AD" /><path d="M548.586667 505.194667a31.04 31.04 0 1 1-62.101334 0.469333 31.04 31.04 0 0 1 62.08-0.469333" fill="#4B71AD" /><path d="M529.386667 519.722667l3.2 6.4c24.021333 49.493333 42.666667 107.306667 38.826666 192.213333-4.48 98.730667 75.904 180.373333 174.634667 176a167.445333 167.445333 0 0 0 159.872-174.72c-8.213333-185.045333-199.168-302.549333-365.397333-230.869333a22.570667 22.570667 0 0 0-11.136 30.976M504.746667 491.136l-3.2-6.4c-24.021333-49.472-42.666667-107.306667-38.826667-192.213333 4.48-98.730667-75.904-180.373333-174.634667-176a167.466667 167.466667 0 0 0-159.872 174.741333c8.234667 185.045333 199.168 302.549333 365.397334 230.848l0.213333-0.085333c11.84-5.12 16.789333-19.370667 10.922667-30.890667" fill="#739AE7" /></svg>