<?xml version="1.0" standalone="no"?><!DOCTYPE svg PUBLIC "-//W3C//DTD SVG 1.1//EN" "http://www.w3.org/Graphics/SVG/1.1/DTD/svg11.dtd"><svg t="1562297588008" class="icon" viewBox="0 0 1024 1024" version="1.1" xmlns="http://www.w3.org/2000/svg" p-id="948" xmlns:xlink="http://www.w3.org/1999/xlink" width="50" height="50"><defs><style type="text/css"></style></defs><path d="M832 408c0-17.6-14.4-32-32-32H616c17.6 0 32 14.4 32 32v272c0 17.6-14.4 32-32 32H96c-17.6 0-32-14.4-32-32v120c0 17.6 14.4 32 32 32h107.2c-6.4 5.6-11.2 14.4-11.2 24v8c0 17.6 14.4 32 32 32h8c17.6 0 32-14.4 32-32v-8c0-9.6-4-18.4-11.2-24h366.4c-6.4 5.6-11.2 14.4-11.2 24v8c0 17.6 14.4 32 32 32h8c17.6 0 32-14.4 32-32v-8c0-9.6-4-18.4-11.2-24H800c17.6 0 32-14.4 32-32V408z" fill="#9CB882" p-id="949"></path><path d="M96 712h520c17.6 0 32-14.4 32-32V408c0-17.6-14.4-32-32-32H96c-17.6 0-32 14.4-32 32v272c0 17.6 14.4 32 32 32z m348-232h120c11.2 0 20 8.8 20 20S575.2 520 564 520h-120c-11.2 0-20-8.8-20-20s8.8-20 20-20z m-144 0h40c11.2 0 20 8.8 20 20S351.2 520 340 520h-40c-11.2 0-20-8.8-20-20s8.8-20 20-20zM168 496c0-8.8 7.2-16 16-16s16 7.2 16 16v8c0 8.8-7.2 16-16 16s-16-7.2-16-16v-8z" fill="#BEDF9F" p-id="950"></path><path d="M832 464v296l160 88V376z" fill="#E4C25A" p-id="951"></path><path d="M240 256m-120 0a120 120 0 1 0 240 0 120 120 0 1 0-240 0Z" fill="#3A97DE" p-id="952"></path><path d="M624 296m-80 0a80 80 0 1 0 160 0 80 80 0 1 0-160 0Z" fill="#3A97DE" p-id="953"></path><path d="M444 520h120c11.2 0 20-8.8 20-20S575.2 480 564 480h-120c-11.2 0-20 8.8-20 20s8.8 20 20 20zM300 520h40c11.2 0 20-8.8 20-20S351.2 480 340 480h-40c-11.2 0-20 8.8-20 20s8.8 20 20 20zM184 520c8.8 0 16-7.2 16-16v-8c0-8.8-7.2-16-16-16s-16 7.2-16 16v8c0 8.8 7.2 16 16 16z" fill="#F4D576" p-id="954"></path></svg>