<?xml version="1.0" standalone="no"?><!DOCTYPE svg PUBLIC "-//W3C//DTD SVG 1.1//EN" "http://www.w3.org/Graphics/SVG/1.1/DTD/svg11.dtd"><svg t="1562297643315" class="icon" viewBox="0 0 1024 1024" version="1.1" xmlns="http://www.w3.org/2000/svg" p-id="1076" xmlns:xlink="http://www.w3.org/1999/xlink" width="50" height="50"><defs><style type="text/css"></style></defs><path d="M96 666.664h816a24 24 0 0 1 24 24v13.424a24 24 0 0 1-24 24H96a24 24 0 0 1-24-24v-13.424a24 24 0 0 1 24-24z" fill="#3FA7F7" p-id="1077"></path><path d="M96 124.128h816a24 24 0 0 1 24 24v13.424a24 24 0 0 1-24 24H96a24 24 0 0 1-24-24v-13.424a24 24 0 0 1 24-24z" fill="#3FA7F7" p-id="1078"></path><path d="M524 32h11.44a20 20 0 0 1 20 20v82.84a20 20 0 0 1-20 20H524a20 20 0 0 1-20-20V52A20 20 0 0 1 524 32z" fill="#3FA7F7" p-id="1079"></path><path d="M524 717.848h11.44a20 20 0 0 1 20 20V964a20 20 0 0 1-20 20H524a20 20 0 0 1-20-20V737.848a20 20 0 0 1 20-20zM490.72 711.128a25.536 25.536 0 0 1 2.64 36.096l-141.44 162.512a25.656 25.656 0 0 1-38.88-33.496l141.44-162.52a25.76 25.76 0 0 1 36.24-2.592z" fill="#3FA7F7" p-id="1080"></path><path d="M558.16 720.864a25.736 25.736 0 0 1 36.32 0l152.72 152a25.44 25.44 0 0 1 0 36.192 25.736 25.736 0 0 1-36.32 0l-152.72-152a25.44 25.44 0 0 1 0-36.192z" fill="#3FA7F7" p-id="1081"></path><path d="M128 184m32 0l712 0q32 0 32 32l0 416q0 32-32 32l-712 0q-32 0-32-32l0-416q0-32 32-32Z" fill="#BEDF9F" p-id="1082"></path><path d="M200 560h200s-3.2-43.2-56-96-136-40-136-40z" fill="#E54B9B" p-id="1083"></path><path d="M848 552H528s108.4-28.296 176-96 136-216 136-216z" fill="#E54B9B" p-id="1084"></path><path d="M416 360a64 64 0 0 1 64-64h-8a64 64 0 0 1 64 64v-8a64 64 0 0 1-64 64h8a64 64 0 0 1-64-64v8z" fill="#EA535A" p-id="1085"></path></svg>