<?xml version="1.0" standalone="no"?><!DOCTYPE svg PUBLIC "-//W3C//DTD SVG 1.1//EN" "http://www.w3.org/Graphics/SVG/1.1/DTD/svg11.dtd"><svg class="icon" width="50px" height="50.00px" viewBox="0 0 1024 1024" version="1.1" xmlns="http://www.w3.org/2000/svg"><path d="M93.098667 415.381333v289.493334c0 90.304 71.978667 166.037333 166.357333 174.549333 167.978667 15.146667 337.109333 15.146667 505.109333 0 94.357333-8.533333 166.336-84.245333 166.336-174.528V415.36c0-90.304-71.978667-166.037333-166.336-174.549333a2810.24 2810.24 0 0 0-505.109333 0c-94.378667 8.512-166.357333 84.266667-166.357333 174.549333" fill="#A8835B" /><path d="M840.469333 429.12c54.165333-148.8-31.445333-314.389333-189.76-352.96-115.498667-28.138667-256.277333 40.149333-306.026666 148.117333a267.818667 267.818667 0 0 0 9.493333 244.437334c21.312 37.930667 24.32 83.413333 9.472 124.266666l-14.634667 40.234667c-6.592 18.048 2.730667 37.973333 20.757334 44.544l166.933333 60.757333a34.773333 34.773333 0 0 0 44.544-20.778666l16.149333-44.373334c13.930667-38.272 43.264-69.696 81.6-83.498666a267.733333 267.733333 0 0 0 161.493334-160.746667" fill="#E0B177" /><path d="M673.130667 372.501333l-39.978667-14.549333a8.192 8.192 0 0 1-4.16-11.989333l66.389333-107.84c4.352-7.04-3.328-15.36-10.709333-11.584l-196.949333 100.778666a8.192 8.192 0 0 0 0.917333 14.997334l39.978667 14.549333a8.192 8.192 0 0 1 4.16 12.010667l-66.389334 107.818666c-4.352 7.04 3.328 15.36 10.709334 11.584l196.970666-100.778666a8.192 8.192 0 0 0-0.938666-14.997334" fill="#FCD09F" /></svg>