<?xml version="1.0" standalone="no"?><!DOCTYPE svg PUBLIC "-//W3C//DTD SVG 1.1//EN" "http://www.w3.org/Graphics/SVG/1.1/DTD/svg11.dtd"><svg t="1562297687281" class="icon" viewBox="0 0 1024 1024" version="1.1" xmlns="http://www.w3.org/2000/svg" p-id="1207" xmlns:xlink="http://www.w3.org/1999/xlink" width="50" height="50"><defs><style type="text/css"></style></defs><path d="M189.6 851.2c-16.8 0-30.4-13.6-31.2-31.2V158.4h-56c-16.8 0-30.4 13.6-30.4 31.2v708.8c0 16.8 13.6 30.4 31.2 30.4 0 0 115.2-23.2 195.2-23.2 119.2 0.8 213.6 13.6 212.8 15.2-3.2 6.4 4 3.2 12-3.2-19.2-12-88.8-50.4-164-50.4-56.8-1.6-113.6-7.2-169.6-16z" fill="#307DB8" p-id="1208"></path><path d="M528.8 104H189.6c-16.8 0-30.4 13.6-30.4 31.2v685.6c0 16.8 13.6 30.4 31.2 31.2 56 9.6 112.8 14.4 169.6 15.2 75.2 0 144.8 38.4 164 50.4 3.2 2.4 5.6 3.2 5.6 3.2 16.8 0 30.4-13.6 30.4-31.2V135.2c-0.8-17.6-14.4-31.2-31.2-31.2zM937.6 104H598.4c-16.8 0-30.4 13.6-31.2 30.4v754.4c0 16.8 13.6 30.4 30.4 31.2 0 0 80-53.6 169.6-53.6 56.8 1.6 113.6 8 169.6 20 16.8 0 30.4-13.6 31.2-30.4V135.2c0-17.6-13.6-31.2-30.4-31.2zM880 736H672c-8.8 0-16-7.2-16-16s7.2-16 16-16h208c8.8 0 16 7.2 16 16s-7.2 16-16 16z m0-152H672c-8.8 0-16-7.2-16-16s7.2-16 16-16h208c8.8 0 16 7.2 16 16s-7.2 16-16 16z m0-160H672c-8.8 0-16-7.2-16-16s7.2-16 16-16h208c8.8 0 16 7.2 16 16s-7.2 16-16 16z m0-152H672c-8.8 0-16-7.2-16-16s7.2-16 16-16h208c8.8 0 16 7.2 16 16s-7.2 16-16 16z" fill="#3A97DE" p-id="1209"></path><path d="M880 240H672c-8.8 0-16 7.2-16 16s7.2 16 16 16h208c8.8 0 16-7.2 16-16s-7.2-16-16-16zM880 392H672c-8.8 0-16 7.2-16 16s7.2 16 16 16h208c8.8 0 16-7.2 16-16s-7.2-16-16-16zM880 552H672c-8.8 0-16 7.2-16 16s7.2 16 16 16h208c8.8 0 16-7.2 16-16s-7.2-16-16-16zM880 704H672c-8.8 0-16 7.2-16 16s7.2 16 16 16h208c8.8 0 16-7.2 16-16s-7.2-16-16-16z" fill="#E4C25A" p-id="1210"></path></svg>