<?xml version="1.0" standalone="no"?><!DOCTYPE svg PUBLIC "-//W3C//DTD SVG 1.1//EN" "http://www.w3.org/Graphics/SVG/1.1/DTD/svg11.dtd"><svg class="icon" width="50px" height="50.00px" viewBox="0 0 1024 1024" version="1.1" xmlns="http://www.w3.org/2000/svg"><path d="M916.266667 504.106667c0 220.586667-178.816 399.36-399.381334 399.36-220.586667 0-399.381333-178.773333-399.381333-399.36 0-220.565333 178.816-399.381333 399.36-399.381334 220.586667 0 399.402667 178.816 399.402667 399.381334" fill="#4B71AD" /><path d="M977.749333 323.136c-22.698667-37.418667-74.133333-55.210667-141.162666-58.453333a397.184 397.184 0 0 1 38.506666 62.890666c21.504 4.117333 35.093333 10.666667 39.573334 18.517334 18.965333 33.173333-90.88 154.709333-362.944 253.738666-272.085333 99.029333-434.346667 76.522667-441.130667 38.912-1.6-8.896 4.586667-22.634667 18.410667-39.616a396.8 396.8 0 0 1-10.922667-72.917333c-49.28 45.546667-77.226667 92.245333-70.570667 135.488 18.773333 121.749333 281.045333 98.666667 529.706667 8.170667 248.661333-90.496 464.426667-241.408 400.533333-346.730667" fill="#739AE7" /></svg>