<?xml version="1.0" standalone="no"?><!DOCTYPE svg PUBLIC "-//W3C//DTD SVG 1.1//EN" "http://www.w3.org/Graphics/SVG/1.1/DTD/svg11.dtd"><svg class="icon" width="50px" height="50.00px" viewBox="0 0 1024 1024" version="1.1" xmlns="http://www.w3.org/2000/svg"><path d="M930.901333 512c0 231.36-187.541333 418.901333-418.901333 418.901333-231.36 0-418.922667-187.52-418.922667-418.901333C93.077333 280.64 280.64 93.098667 512 93.098667S930.901333 280.64 930.901333 512" fill="#529E90" /><path d="M444.224 444.224a58.176 58.176 0 1 1-82.261333-82.261333 58.176 58.176 0 0 1 82.261333 82.261333z m217.813333 217.813333a58.197333 58.197333 0 1 1-82.261333-82.304 58.197333 58.197333 0 0 1 82.282667 82.325334z m14.506667-248.768L413.290667 676.565333a46.570667 46.570667 0 0 1-65.834667-65.813333l263.296-263.296a46.528 46.528 0 1 1 65.834667 65.813333z" fill="#60D1C0" /></svg>