<?xml version="1.0" standalone="no"?><!DOCTYPE svg PUBLIC "-//W3C//DTD SVG 1.1//EN" "http://www.w3.org/Graphics/SVG/1.1/DTD/svg11.dtd"><svg t="1562297722915" class="icon" viewBox="0 0 1024 1024" version="1.1" xmlns="http://www.w3.org/2000/svg" p-id="1332" xmlns:xlink="http://www.w3.org/1999/xlink" width="50" height="50"><defs><style type="text/css"></style></defs><path d="M872 886.4c0 23.2-18.4 41.6-41.6 41.6H185.6c-23.2 0-41.6-18.4-41.6-41.6V368h-64v518.4c0 58.4 47.2 105.6 105.6 105.6h644.8c58.4 0 105.6-47.2 105.6-105.6V368h-64v518.4z" fill="#E4C25A" p-id="1333"></path><path d="M867.2 80H148.8c-38.4 0-68.8 28.8-68.8 64v224h856V144c0-35.2-31.2-64-68.8-64zM244 176c12.8 0 24 6.4 30.4 16h466.4c6.4-9.6 17.6-16 30.4-16 20 0 36 16 36 36S792 248 772 248c-12.8 0-24-6.4-30.4-16H274.4c-6.4 9.6-17.6 16-30.4 16-20 0-36-16-36-36s16-36 36-36z" fill="#3A97DE" p-id="1334"></path><path d="M244 248c12.8 0 24-6.4 30.4-16h-14.4c-11.2 0-20-8.8-20-20s8.8-20 20-20h14.4c-6.4-9.6-17.6-16-30.4-16-20 0-36 16-36 36s16 36 36 36zM768 212c0 11.2-8.8 20-20 20h-6.4c6.4 9.6 17.6 16 30.4 16 20 0 36-16 36-36S792 176 772 176c-12.8 0-24 6.4-30.4 16h6.4c11.2 0 20 8.8 20 20z" fill="#307DB8" p-id="1335"></path><path d="M240 212c0 11.2 8.8 20 20 20H747.2c11.2 0 20-8.8 20-20S758.4 192 747.2 192H260c-11.2 0-20 8.8-20 20z" fill="#FFFFFF" p-id="1336"></path><path d="M208 696h208v88H208z" fill="#DDDADC" p-id="1337"></path><path d="M392 584h208v88H392z" fill="#E14B4B" p-id="1338"></path><path d="M608 456h208v88H608z" fill="#BEDF9F" p-id="1339"></path></svg>