<?xml version="1.0" standalone="no"?><!DOCTYPE svg PUBLIC "-//W3C//DTD SVG 1.1//EN" "http://www.w3.org/Graphics/SVG/1.1/DTD/svg11.dtd"><svg t="1562297754083" class="icon" viewBox="0 0 1024 1024" version="1.1" xmlns="http://www.w3.org/2000/svg" p-id="1461" xmlns:xlink="http://www.w3.org/1999/xlink" width="50" height="50"><defs><style type="text/css"></style></defs><path d="M500.8 713.6l-62.4-37.6c-1.6-0.8-2.4-1.6-4-1.6-12.8-4.8-21.6-17.6-21.6-32V616c0-6.4-2.4-12-6.4-16H200.8c-4 4-6.4 9.6-6.4 16v26.4c0 14.4-8.8 26.4-21.6 32-1.6 0.8-2.4 0.8-4 1.6l-62.4 37.6C85.6 727.2 72 750.4 72 776v124c0 32.8 26.4 59.2 59.2 59.2h346.4c32.8 0 59.2-26.4 59.2-59.2V776c-0.8-25.6-14.4-48.8-36-62.4z m23.2 186.4c0 25.6-20.8 47.2-46.4 47.2H131.2c-25.6 0-47.2-20.8-46.4-47.2V776c0-20.8 11.2-40.8 28.8-52l62.4-37.6c0.8 0 1.6-0.8 1.6-0.8 17.6-7.2 29.6-24 29.6-43.2V616h12v26.4c0 24-15.2 46.4-37.6 55.2L120 735.2c-14.4 8.8-23.2 24-23.2 40.8v102.4c138.4 12.8 276.8 11.2 415.2-4V776c0-16.8-8.8-32-23.2-40.8l-62.4-37.6c-22.4-8.8-37.6-30.4-37.6-55.2V616h12v26.4c0 19.2 12 36.8 29.6 43.2 0.8 0 1.6 0.8 1.6 0.8l62.4 37.6c18.4 11.2 28.8 30.4 28.8 52l0.8 124z" fill="#3FA7F7" p-id="1462"></path><path d="M476.8 935.2H131.2c-19.2 0-34.4-16-34.4-34.4 0 19.2 15.2 34.4 34.4 34.4h345.6c19.2 0 34.4-15.2 34.4-34.4 0 18.4-15.2 34.4-34.4 34.4z" fill="#3FA7F7" p-id="1463"></path><path d="M448 600c17.6 0 32-14.4 32-32v-32c0-17.6-14.4-32-32-32H152c-17.6 0-32 14.4-32 32v32c0 17.6 14.4 32 32 32h296z" fill="#BEDF9F" p-id="1464"></path><path d="M776 120l-88 65.6c-4-1.6-20-3.2-64-1.6-99.2 3.2-120.8 135.2-128 160-13.6 45.6-80 96-80 96s137.6 56 200 56 112.8-54.4 141.6-88.8C791.2 368 790.4 309.6 768 272l72-88-64-64zM880 56l-16 8-72.8 45.6L856 168l72-72z" fill="#E54B9B" p-id="1465"></path></svg>