<?xml version="1.0" standalone="no"?><!DOCTYPE svg PUBLIC "-//W3C//DTD SVG 1.1//EN" "http://www.w3.org/Graphics/SVG/1.1/DTD/svg11.dtd"><svg class="icon" width="50px" height="50.00px" viewBox="0 0 1024 1024" version="1.1" xmlns="http://www.w3.org/2000/svg"><path d="M764.544 228.096A78.016 78.016 0 0 1 705.557333 192a112.426667 112.426667 0 0 0-95.04-52.394667h-197.034666a112.426667 112.426667 0 0 0-95.04 52.394667 78.016 78.016 0 0 1-58.986667 36.053333c-94.378667 8.533333-166.357333 84.266667-166.357333 174.570667v289.493333c0 90.304 71.978667 166.037333 166.357333 174.549334 167.978667 15.146667 337.088 15.146667 505.088 0 94.378667-8.533333 166.357333-84.266667 166.357333-174.528V402.645333c0-90.304-71.978667-166.037333-166.357333-174.549333" fill="#B3B7BC" /><path d="M709.824 535.744A197.824 197.824 0 0 1 512 733.568a197.824 197.824 0 0 1-197.824-197.824A197.824 197.824 0 0 1 512 337.941333a197.824 197.824 0 0 1 197.824 197.802667" fill="#888B8E" /><path d="M474.24 605.610667l114.602667-93.312c25.770667-20.992 26.304-60.650667 0.512-81.6a127.957333 127.957333 0 0 0-85.205334-28.629334c-64.469333 2.090667-118.549333 53.376-123.818666 117.632a128.32 128.32 0 0 0 13.738666 69.589334c15.274667 29.653333 54.293333 37.397333 80.170667 16.32" fill="#B3B7BC" /></svg>