<?xml version="1.0" standalone="no"?><!DOCTYPE svg PUBLIC "-//W3C//DTD SVG 1.1//EN" "http://www.w3.org/Graphics/SVG/1.1/DTD/svg11.dtd"><svg class="icon" width="50px" height="50.00px" viewBox="0 0 1024 1024" version="1.1" xmlns="http://www.w3.org/2000/svg"><path d="M231.552 667.136H200.746667c-37.482667 0-68.906667 19.797333-72.448 45.781333a513.493333 513.493333 0 0 0 0 138.944c3.541333 25.941333 34.986667 45.76 72.448 45.76h30.805333c37.482667 0 68.906667-19.818667 72.448-45.76a513.493333 513.493333 0 0 0 0-138.944c-3.541333-25.984-34.965333-45.781333-72.448-45.781333M817.92 667.136h-30.762667c-37.482667 0-68.928 19.797333-72.469333 45.781333a513.493333 513.493333 0 0 0 0 138.944c3.541333 25.941333 34.986667 45.76 72.469333 45.76h30.784c37.482667 0 68.906667-19.818667 72.448-45.76a514.453333 514.453333 0 0 0 0-138.944c-3.52-25.984-34.986667-45.781333-72.448-45.781333" fill="#A8835B" /><path d="M189.034667 217.6L80.170667 463.210667c-50.88 114.816-12.288 234.453333 103.765333 249.557333a2542.656 2542.656 0 0 0 650.837333 0c116.053333-15.104 154.645333-134.741333 103.744-249.557333L829.653333 217.578667c-23.466667-52.992-88.746667-91.776-152.810666-95.850667a2615.957333 2615.957333 0 0 0-334.976 0c-64.085333 4.053333-129.344 42.88-152.832 95.850667" fill="#CCA57A" /><path d="M838.997333 424.533333l-72.192-189.568c-13.866667-35.52-57.109333-62.101333-101.461333-65.066666-52.266667-3.434667-104.576-5.184-156.010667-5.184-51.413333 0-103.722667 1.749333-155.946666 5.205333-44.373333 2.944-87.637333 29.525333-101.482667 65.045333L179.690667 424.533333h659.306666z" fill="#A8835B" /><path d="M58.176 568.981333v79.914667c0 97.237333 77.546667 178.794667 179.178667 187.968 180.906667 16.341333 363.050667 16.341333 544 0 101.610667-9.173333 179.157333-90.730667 179.157333-187.968V568.96c0-97.237333-77.546667-178.794667-179.178667-187.968a3024.981333 3024.981333 0 0 0-544 0c-101.610667 9.173333-179.157333 90.730667-179.157333 187.968" fill="#CCA57A" /><path d="M382.656 638.954667a110.016 110.016 0 1 1-220.032 0 110.016 110.016 0 0 1 220.032 0M856.085333 638.954667a110.016 110.016 0 1 1-220.053333 0 110.016 110.016 0 0 1 220.053333 0" fill="#A8835B" /></svg>