<?xml version="1.0" standalone="no"?><!DOCTYPE svg PUBLIC "-//W3C//DTD SVG 1.1//EN" "http://www.w3.org/Graphics/SVG/1.1/DTD/svg11.dtd"><svg class="icon" width="50px" height="50.00px" viewBox="0 0 1024 1024" version="1.1" xmlns="http://www.w3.org/2000/svg"><path d="M904 541.6H736v2.4H296v-2.4H128v408h256V796c-0.8-27.2 20.8-51.2 48-52h184c27.2 0.8 48.8 24.8 48 52v153.6h240v-408z" fill="#3FA7F7" /><path d="M608 152c39.2-8 80-13.6 120-16l-16-72c-29.6-4-60-1.6-88 8-72 22.4-120 8-120 8l8 88s40-5.6 96-16z" fill="#BEDF9F" /><path d="M616 744H432c-27.2 0.8-48.8 24.8-48 52V952h280V796c0.8-27.2-20.8-51.2-48-52z m4 72c11.2 0 20 8.8 20 20s-8.8 20-20 20-20-8.8-20-20 8.8-20 20-20z" fill="#E54B9B" /><path d="M620 836m-20 0a20 20 0 1 0 40 0 20 20 0 1 0-40 0Z" fill="#FFFFFF" /><path d="M736 544V348L520 232 296 348V544h440zM480 344c0-17.6 14.4-32 32-32h16c17.6 0 32 14.4 32 32v16c0 17.6-14.4 32-32 32h-16c-17.6 0-32-14.4-32-32v-16z" fill="#BEDF9F" /></svg>