<?xml version="1.0" standalone="no"?><!DOCTYPE svg PUBLIC "-//W3C//DTD SVG 1.1//EN" "http://www.w3.org/Graphics/SVG/1.1/DTD/svg11.dtd"><svg class="icon" width="50px" height="50.00px" viewBox="0 0 1024 1024" version="1.1" xmlns="http://www.w3.org/2000/svg"><path d="M482.069333 59.221333c-205.866667 14.293333-372.8 180.608-387.84 386.410667-16.618667 227.690667 148.906667 420.202667 365.781334 447.061333a57.472 57.472 0 0 1 50.496 53.994667 12.074667 12.074667 0 0 0 15.573333 10.88A652.842667 652.842667 0 0 0 834.986667 743.893333a417.152 417.152 0 0 0 95.914666-266.794666c0-241.258667-203.946667-434.88-448.832-417.856" fill="#529E90" /><path d="M384 471.253333a64 64 0 1 1-128 0 64 64 0 0 1 128 0M581.824 471.253333a64 64 0 1 1-128 0 64 64 0 0 1 128 0M779.626667 471.253333a64 64 0 1 1-128 0 64 64 0 0 1 128 0" fill="#60D1C0" /></svg>