<?xml version="1.0" standalone="no"?><!DOCTYPE svg PUBLIC "-//W3C//DTD SVG 1.1//EN" "http://www.w3.org/Graphics/SVG/1.1/DTD/svg11.dtd"><svg class="icon" width="50px" height="50.00px" viewBox="0 0 1024 1024" version="1.1" xmlns="http://www.w3.org/2000/svg"><path d="M930.901333 512c0 231.36-187.541333 418.901333-418.901333 418.901333-231.36 0-418.901333-187.541333-418.901333-418.901333C93.098667 280.64 280.64 93.098667 512 93.098667c231.36 0 418.901333 187.541333 418.901333 418.901333" fill="#CCCCCC" /><path d="M717.696 764.245333a46.378667 46.378667 0 0 1-32.896-13.653333l-205.717333-205.696A46.378667 46.378667 0 0 1 465.450667 512a46.528 46.528 0 0 1 79.445333-32.917333l205.717333 205.717333c9.088 9.066667 13.653333 20.992 13.653334 32.896s-4.565333 23.829333-13.653334 32.917333c-9.088 9.088-21.013333 13.653333-32.917333 13.653334" fill="#888B8E" /><path d="M512 558.549333A46.549333 46.549333 0 0 1 465.450667 512V256a46.549333 46.549333 0 0 1 93.098666 0v256A46.549333 46.549333 0 0 1 512 558.549333" fill="#CC81A8" /></svg>