<?xml version="1.0" standalone="no"?><!DOCTYPE svg PUBLIC "-//W3C//DTD SVG 1.1//EN" "http://www.w3.org/Graphics/SVG/1.1/DTD/svg11.dtd"><svg t="1562297782821" class="icon" viewBox="0 0 1024 1024" version="1.1" xmlns="http://www.w3.org/2000/svg" p-id="1587" xmlns:xlink="http://www.w3.org/1999/xlink" width="50" height="50"><defs><style type="text/css"></style></defs><path d="M516 80L48 252s60.8 38.4 140 88l364.8 230.4L984 252 516 80zM378.4 188.8L119.2 287.2c-0.8 0-1.6 0.8-3.2 0.8-3.2 0-6.4-1.6-7.2-4.8-1.6-4 0.8-8.8 4.8-10.4l258.4-98.4c4-1.6 8.8 0.8 10.4 4.8s0 8-4 9.6z" fill="#E54B9B" p-id="1588"></path><path d="M159.2 705.6L528 976V583.2L196 387.2z" fill="#3FA7F7" p-id="1589"></path><path d="M73.6 452L36.8 545.6h121.6L120 452H73.6z m10.4 61.6l12-29.6h3.2l12 29.6h-27.2z" fill="#F4D576" p-id="1590"></path><path d="M561.6 599.2v368l369.6-282.4-12-356z" fill="#3FA7F7" p-id="1591"></path><path d="M372.8 173.6L113.6 272c-4 1.6-6.4 6.4-4.8 10.4 1.6 3.2 4 4.8 7.2 4.8 0.8 0 1.6 0 3.2-0.8l258.4-98.4c4-1.6 6.4-6.4 4.8-10.4s-5.6-4.8-9.6-4zM108.8 435.2V312c0-4.8-3.2-8-8-8s-8 3.2-8 8v122.4c0 4.8 3.2 8 8 8s8-3.2 8-7.2z" fill="#F4D576" p-id="1592"></path></svg>