<?xml version="1.0" standalone="no"?><!DOCTYPE svg PUBLIC "-//W3C//DTD SVG 1.1//EN" "http://www.w3.org/Graphics/SVG/1.1/DTD/svg11.dtd"><svg t="1572360305287" class="icon" viewBox="0 0 1024 1024" version="1.1" xmlns="http://www.w3.org/2000/svg" p-id="4949" width="48" height="48" xmlns:xlink="http://www.w3.org/1999/xlink"><defs><style type="text/css"></style></defs><path d="M511.800471 214.588235c43.663059 0 79.058824-35.395765 79.058823-79.058823s-35.395765-79.058824-79.058823-79.058824-79.058824 35.395765-79.058824 79.058824 35.395765 79.058824 79.058824 79.058823z m0-37.647059c-22.870588 0-41.411765-18.541176-41.411765-41.411764s18.541176-41.411765 41.411765-41.411765 41.411765 18.541176 41.411764 41.411765-18.541176 41.411765-41.411764 41.411764zM511.800471 967.529412c43.663059 0 79.058824-35.395765 79.058823-79.058824s-35.395765-79.058824-79.058823-79.058823-79.058824 35.395765-79.058824 79.058823 35.395765 79.058824 79.058824 79.058824z m0-37.647059c-22.870588 0-41.411765-18.541176-41.411765-41.411765s18.541176-41.411765 41.411765-41.411764 41.411765 18.541176 41.411764 41.411764-18.541176 41.411765-41.411764 41.411765zM769.366588 363.294118c21.831529 37.812706 70.181647 50.770824 107.994353 28.939294 37.812706-21.835294 50.770824-70.185412 28.939294-107.998118-21.835294-37.812706-70.185412-50.770824-107.998117-28.939294-37.812706 21.835294-50.767059 70.185412-28.93553 107.998118z m32.602353-18.82353c-11.437176-19.806118-4.649412-45.135059 15.156706-56.56847 19.809882-11.437176 45.135059-4.649412 56.572235 15.156706 11.433412 19.806118 4.649412 45.135059-15.16047 56.56847-19.802353 11.437176-45.131294 4.649412-56.568471-15.156706zM117.300706 739.764706c21.831529 37.812706 70.181647 50.770824 107.994353 28.939294 37.812706-21.835294 50.770824-70.185412 28.939294-107.998118-21.835294-37.812706-70.185412-50.770824-107.998118-28.939294-37.812706 21.835294-50.767059 70.185412-28.935529 107.998118z m32.602353-18.82353c-11.437176-19.806118-4.649412-45.135059 15.156706-56.56847 19.806118-11.437176 45.135059-4.649412 56.56847 15.156706 11.437176 19.806118 4.649412 45.135059-15.156706 56.56847-19.806118 11.437176-45.135059 4.649412-56.56847-15.156706zM769.366588 660.705882c-21.835294 37.812706-8.877176 86.166588 28.93553 107.998118 37.812706 21.831529 86.166588 8.873412 107.998117-28.939294 21.831529-37.812706 8.873412-86.166588-28.939294-107.998118-37.812706-21.831529-86.162824-8.873412-107.994353 28.939294z m32.602353 18.82353c11.437176-19.806118 36.762353-26.593882 56.568471-15.156706 19.809882 11.433412 26.593882 36.762353 15.16047 56.56847-11.437176 19.806118-36.762353 26.593882-56.572235 15.156706-19.802353-11.433412-26.593882-36.762353-15.156706-56.56847zM117.300706 284.235294c-21.835294 37.812706-8.877176 86.166588 28.935529 107.998118 37.812706 21.831529 86.166588 8.873412 107.998118-28.939294 21.831529-37.812706 8.873412-86.166588-28.939294-107.998118C187.482353 233.464471 139.132235 246.422588 117.300706 284.235294z m32.602353 18.82353c11.433412-19.806118 36.762353-26.593882 56.56847-15.156706 19.806118 11.433412 26.593882 36.762353 15.156706 56.56847-11.433412 19.806118-36.762353 26.593882-56.56847 15.156706-19.806118-11.433412-26.593882-36.762353-15.156706-56.56847z" fill="#8a8a8a" p-id="4950"></path><path d="M700.235294 185.219765m-52.165295-30.117647a60.235294 60.235294 0 1 0 104.33059 60.235294 60.235294 60.235294 0 1 0-104.33059-60.235294Z" fill="#8a8a8a" p-id="4951"></path><path d="M323.764706 837.285647m-52.165295-30.117647a60.235294 60.235294 0 1 0 104.33059 60.235294 60.235294 60.235294 0 1 0-104.33059-60.235294Z" fill="#8a8a8a" p-id="4952"></path><path d="M888.470588 511.250824m0-60.235295a60.235294 60.235294 0 1 0 0 120.470589 60.235294 60.235294 0 1 0 0-120.470589Z" fill="#8a8a8a" p-id="4953"></path><path d="M135.529412 511.250824m0-60.235295a60.235294 60.235294 0 1 0 0 120.470589 60.235294 60.235294 0 1 0 0-120.470589Z" fill="#8a8a8a" p-id="4954"></path><path d="M700.235294 837.285647m52.165295-30.117647a60.235294 60.235294 0 1 0-104.33059 60.235294 60.235294 60.235294 0 1 0 104.33059-60.235294Z" fill="#8a8a8a" p-id="4955"></path><path d="M323.764706 185.219765m52.165295-30.117647a60.235294 60.235294 0 1 0-104.33059 60.235294 60.235294 60.235294 0 1 0 104.33059-60.235294Z" fill="#8a8a8a" p-id="4956"></path><path d="M532.999529 239.856941a18.823529 18.823529 0 1 1-37.647058 0V207.058824a18.823529 18.823529 0 1 1 37.647058 0v32.798117z m0 576a18.823529 18.823529 0 1 1-37.647058 0V783.058824a18.823529 18.823529 0 1 1 37.647058 0v32.798117z m226.966589-424.828235a18.823529 18.823529 0 0 1-18.82353-32.602353l28.400941-16.399059a18.823529 18.823529 0 0 1 18.82353 32.602353l-28.400941 16.399059z m-498.831059 288a18.823529 18.823529 0 1 1-18.82353-32.602353l28.404706-16.399059a18.823529 18.823529 0 1 1 18.82353 32.602353l-28.404706 16.399059z m478.844235-15.469177a18.823529 18.823529 0 0 1 18.82353-32.602353l28.400941 16.399059a18.823529 18.823529 0 0 1-18.82353 32.602353l-28.400941-16.399059z m-498.831059-288a18.823529 18.823529 0 0 1 18.82353-32.602353l28.400941 16.399059a18.823529 18.823529 0 0 1-18.82353 32.602353l-28.400941-16.399059z" fill="#8a8a8a" p-id="4957"></path><path d="M566.610824 743.145412a17.603765 17.603765 0 0 1-7.917177-34.304c107.497412-24.816941 174.765176-132.468706 149.948235-239.969883-12.205176-52.856471-44.434824-97.536-90.755764-125.801411a200.794353 200.794353 0 0 0-48.993883-21.545412 17.607529 17.607529 0 0 1 9.750589-33.833412 236.069647 236.069647 0 0 1 57.581176 25.328941c54.467765 33.231059 92.370824 85.771294 106.721882 147.930353 29.184 126.418824-49.92 253.010824-176.335058 282.194824z m-109.06353-2.827294a17.498353 17.498353 0 0 1-8.820706-0.244706c-82.138353-23.661176-145.099294-90.051765-164.306823-173.263059-29.187765-126.415059 49.916235-253.007059 176.331294-282.191059a17.603765 17.603765 0 0 1 7.920941 34.304c-107.501176 24.816941-174.768941 132.468706-149.948235 239.969882 16.335059 70.761412 69.884235 127.224471 139.745882 147.350589a17.603765 17.603765 0 0 1-0.926118 34.070588z" fill="#8a8a8a" p-id="4958"></path><path d="M554.051765 680.361412c-93.044706 21.481412-186.217412-36.736-207.698824-129.780706-21.477647-93.040941 36.743529-186.213647 129.784471-207.695059 93.040941-21.477647 186.213647 36.743529 207.691294 129.784471 21.481412 93.040941-36.736 186.213647-129.780706 207.691294z m-69.993412-303.168c-74.127059 17.114353-120.508235 91.343059-103.397647 165.466353 17.114353 74.127059 91.343059 120.508235 165.466353 103.397647 74.127059-17.114353 120.508235-91.343059 103.397647-165.470118-17.114353-74.127059-91.343059-120.508235-165.466353-103.393882z" fill="#8a8a8a" p-id="4959"></path></svg>