<?xml version="1.0" standalone="no"?><!DOCTYPE svg PUBLIC "-//W3C//DTD SVG 1.1//EN" "http://www.w3.org/Graphics/SVG/1.1/DTD/svg11.dtd"><svg t="1562297823969" class="icon" viewBox="0 0 1024 1024" version="1.1" xmlns="http://www.w3.org/2000/svg" p-id="1714" xmlns:xlink="http://www.w3.org/1999/xlink" width="50" height="50"><defs><style type="text/css"></style></defs><path d="M436 195.2c16.8 26.4 46.4 44 80.8 44s64.8-18.4 81.6-45.6L744 294.4h56L610.4 163.2c1.6-6.4 1.6-12.8 1.6-19.2 0-52.8-43.2-95.2-96-95.2s-95.2 43.2-95.2 96c0 7.2 0.8 14.4 2.4 21.6l-186.4 128h56l143.2-99.2z" fill="#F4D576" p-id="1715"></path><path d="M949.6 344c-32-32-75.2-50.4-120.8-50.4H195.2c-45.6 0-88.8 17.6-120.8 50.4S24 419.2 24 465.6v348c0 94.4 76.8 171.2 171.2 171.2h634.4c94.4 0 171.2-76.8 171.2-171.2V465.6c-0.8-46.4-18.4-88.8-51.2-121.6z m-13.6 468.8c0 59.2-48 107.2-107.2 107.2H195.2C136 920 88 872 88 812.8V465.6c0-28.8 11.2-55.2 31.2-76s47.2-31.2 76-31.2h634.4c28.8 0 55.2 11.2 76 31.2 20 20 31.2 47.2 31.2 76v347.2z" fill="#3997E0" p-id="1716"></path><path d="M750.4 430.4H273.6c-57.6 0-104.8 40.8-104.8 90.4v227.2c0 50.4 47.2 90.4 104.8 90.4h476.8c57.6 0 104.8-40.8 104.8-90.4V521.6c0-50.4-47.2-91.2-104.8-91.2zM460.8 639.2h-46.4v47.2h-20v-47.2h-46.4v-20h46.4v-46.4h20v46.4h46.4v20z m233.6 7.2h-64.8v-21.6h64.8v21.6z" fill="#FFD8AF" p-id="1717"></path><path d="M414.4 572.8h-20v46.4h-47.2v20h47.2v47.2h20v-47.2h46.4v-20h-46.4zM629.6 625.6h64.8v21.6h-64.8z" fill="#FF5D2B" p-id="1718"></path></svg>