<?xml version="1.0" standalone="no"?><!DOCTYPE svg PUBLIC "-//W3C//DTD SVG 1.1//EN" "http://www.w3.org/Graphics/SVG/1.1/DTD/svg11.dtd"><svg class="icon" width="50px" height="35.98px" viewBox="0 0 1423 1024" version="1.1" xmlns="http://www.w3.org/2000/svg"><path d="M1213.4 665.1h-33.3V421.2h22.1v22.1h22.1v22.1h22.1v22.1h22.1v22.1h22.1v22.1h22.1v22.1h22.1v22.1h22.1V598h22.1v22h22.1v22.1h22.1v22.1h-243.9v-33.3c0.9 18.8 16.3 34.2 34.1 34.2zM774.2 222.8h177.3v731.7c0 37.8-28.7 66.6-66.6 66.6H175.7c-37.8 0-66.6-28.7-66.6-66.6V67.9c0-37.8 28.7-66.6 66.6-66.6h554.4v177.3h44.5v44.2h-0.4z m-66.5-22.4V23.1h-532c-24.5 0-44.5 20-44.5 44.5v886.6c0 24.5 20 44.5 44.5 44.5H885c24.5 0 44.5-20 44.5-44.5V244.9H752.2v-44.5h-44.5z" fill="#9FA0A6" /><path d="M197.8 887.6h665.1v44.5H197.8zM197.8 776.8h665.1v44.5H197.8zM197.8 666.1h665.1v44.5H197.8z" fill="#9FA0A6" /><path d="M87.1 111.7h354.6c24.5 0 44.5 20 44.5 44.5v354.6c0 24.5-20 44.5-44.5 44.5H87.1c-24.5 0-44.5-20-44.5-44.5V156.2c0-24.5 19.9-44.5 44.5-44.5z" fill="#1F9AFF" /><path d="M183.9 347.5l4.2 1.2c5.1 1.8 8.2 7.6 5.7 12.7-3.3 7.9-7.9 13.9-13.9 18.2-7.9 6.1-18.2 9.1-30.6 9.1-15.1 0-27.8-5.1-37.5-15.7-9.7-10.3-14.8-24.5-14.8-42.7 0-19.1 4.8-33.9 14.8-44.5s22.7-15.7 39-15.7c13.9 0 25.4 4.2 34.2 12.4 3 2.7 5.4 6.1 7.6 10.3 2.7 5.4-0.3 12.1-6.1 13.6l-4.5 1.2c-4.2 0.9-8.5-1.2-10.6-5.1-1.5-2.7-3.3-5.1-6.1-7.3-4.2-3.3-9.7-5.1-15.7-5.1-8.5 0-15.4 3-20.6 9.1-5.4 6.1-7.9 16-7.9 29.7 0 14.5 2.7 24.8 7.9 30.9 5.1 6.1 12.1 9.4 20.3 9.4 6.1 0 11.5-1.8 16-5.7 2.7-2.4 5.1-5.7 7-10 1.9-5.1 7.1-7.5 11.6-6z m39.3 0.9l2.1-0.3c4.8-0.6 9.1 2.4 10.6 7 1.5 3.9 3.6 6.7 6.1 9.1 4.2 3.6 9.7 5.4 16.6 5.4 7.6 0 13-1.5 16.9-4.8 3.9-3 5.7-7 5.7-11.2 0-2.7-0.9-5.1-2.4-7-1.5-1.8-4.2-3.6-8.5-4.8-2.7-0.9-8.8-2.7-18.5-5.1-12.4-3-21.2-7-26-11.5-7-6.4-10.6-13.9-10.6-23 0-5.7 1.5-11.2 4.8-16.3 3.3-5.1 8.2-9.1 14.2-11.5 6.4-2.7 13.6-3.9 22.7-3.9 14.5 0 25.1 3 32.7 9.4 3.6 3.3 6.7 7 8.5 11.2 3 6.7-2.1 14.2-9.4 14.5H286c-4.2 0.3-8.5-2.4-10-6.4-1.2-2.7-2.7-4.5-4.5-6.1-3.3-2.7-8.2-3.9-14.8-3.9s-12.1 1.5-15.7 4.2c-2.4 1.8-3.6 4.2-3.6 7.3 0 2.7 1.2 5.1 3.3 7 3 2.4 10 5.1 21.2 7.6 11.2 2.7 19.7 5.4 25.1 8.2 5.4 2.7 9.7 6.7 12.7 11.8 3 4.8 4.5 10.9 4.5 18.2 0 6.7-1.8 12.7-5.4 18.5-3.6 5.7-8.8 10-15.4 12.7-6.7 2.7-15.1 4.2-25.1 4.2-14.5 0-25.7-3.3-33.3-10-4.8-4.2-8.5-9.7-10.9-16.3-2.1-6.7 2.5-13.6 9.1-14.2z m105.9 0l3.9-0.3c4.2-0.3 8.5 2.1 10 6.4 1.5 3.9 3.6 7.3 6.4 9.7 4.2 3.6 9.7 5.4 16.6 5.4 7.6 0 13-1.5 16.9-4.8 3.9-3 5.7-7 5.7-11.2 0-2.7-0.9-5.1-2.4-7s-4.2-3.6-8.5-4.8c-2.7-0.9-8.8-2.7-18.5-5.1-12.4-3-21.2-7-26-11.5-7-6.4-10.6-13.9-10.6-23 0-5.7 1.5-11.2 4.8-16.3 3.3-5.1 8.2-9.1 14.2-11.5 6.4-2.7 13.6-3.9 22.7-3.9 14.5 0 25.1 3 32.7 9.4 3.9 3.6 7 7.9 9.1 12.7 2.4 6.1-1.8 13-8.5 13.3l-4.6 0.1c-3.9 0.3-7.6-2.1-9.1-5.7-1.2-3-2.7-5.1-4.8-6.7-3.3-2.7-8.2-3.9-14.8-3.9s-12.1 1.5-15.7 4.2c-2.4 1.8-3.6 4.2-3.6 7.3 0 2.7 1.2 5.1 3.3 7 3 2.4 10 5.1 21.2 7.6 11.2 2.7 19.7 5.4 25.1 8.2 5.4 2.7 9.7 6.7 12.7 11.8 3 4.8 4.5 10.9 4.5 18.2 0 6.7-1.8 12.7-5.4 18.5-3.6 5.7-8.8 10-15.4 12.7-6.7 2.7-15.1 4.2-25.1 4.2-14.5 0-25.7-3.3-33.3-10-5.4-4.5-9.1-10.6-11.5-18.2-2-6.2 2-12.2 8-12.8z" fill="#FFFFFF" /></svg>