<?xml version="1.0" standalone="no"?><!DOCTYPE svg PUBLIC "-//W3C//DTD SVG 1.1//EN" "http://www.w3.org/Graphics/SVG/1.1/DTD/svg11.dtd"><svg t="1560073489186" class="icon" style="" viewBox="0 0 1024 1024" version="1.1" xmlns="http://www.w3.org/2000/svg" p-id="1975" xmlns:xlink="http://www.w3.org/1999/xlink" width="20" height="20"><defs><style type="text/css"></style></defs><path d="M0 72.777143C0 32.548571 32.987429 0 72.411429 0h294.034285A73.142857 73.142857 0 0 1 438.857143 72.777143v585.874286c0 40.228571-32.987429 72.777143-72.411429 72.777142H72.411429A73.142857 73.142857 0 0 1 0 658.651429V72.777143zM0 877.714286h438.857143v146.285714H0v-146.285714z m585.142857-512.365715c0-40.228571 32.987429-72.777143 72.411429-72.777142h294.034285a73.142857 73.142857 0 0 1 72.411429 72.777142v585.874286c0 40.228571-32.987429 72.777143-72.411429 72.777143H657.554286a73.142857 73.142857 0 0 1-72.411429-72.777143v-585.874286zM585.142857 0h438.857143v146.285714H585.142857V0z" fill="#ffffff" p-id="1976"></path></svg>