<?xml version="1.0" standalone="no"?><!DOCTYPE svg PUBLIC "-//W3C//DTD SVG 1.1//EN" "http://www.w3.org/Graphics/SVG/1.1/DTD/svg11.dtd"><svg t="1562297881561" class="icon" viewBox="0 0 1024 1024" version="1.1" xmlns="http://www.w3.org/2000/svg" p-id="1969" xmlns:xlink="http://www.w3.org/1999/xlink" width="50" height="50"><defs><style type="text/css"></style></defs><path d="M472 734.4c-1.6-8.8-1.6-44.8-5.6-79.2 3.2 34.4-0.8 68 5.6 79.2zM462.4 627.2c-3.2-16-8-28.8-15.2-35.2 7.2 10.4 12 23.2 15.2 35.2z" fill="#3997E0" p-id="1970"></path><path d="M946.4 417.6L591.2 61.6c-28.8-28.8-76-28.8-104.8 0L124.8 424v-0.8s95.2 0.8 129.6 35.2c34.4 34.4 13.6 72.8 35.2 94.4 3.2 3.2 7.2 4.8 11.2 5.6C278.4 537.6 696 168 696 168l160 160-382.4 408.8c14.4 14.4 44-3.2 71.2 24 26.4 26.4 41.6 124 41.6 124h-0.8l360.8-361.6c28.8-29.6 28.8-76.8 0-105.6z" fill="#3997E0" p-id="1971"></path><path d="M364 560.8c16 0 32 1.6 47.2 6.4-15.2-7.2-27.2-6.4-45.6-6.4h-1.6z" fill="#3997E0" p-id="1972"></path><path d="M72 736.8s-28 187.2-4 220.8c0.8 0.8 0.8 1.6 1.6 1.6 16.8 16.8 89.6 7.2 144.8-2.4 35.2-6.4 63.2-12.8 63.2-12.8L72 736.8z" fill="#E54B9B" p-id="1973"></path><path d="M544.8 760c-26.4-26.4-56-8.8-71.2-24-0.8 0.8-0.8 0-1.6-1.6-6.4-11.2-2.4-44.8-5.6-79.2-0.8-9.6-2.4-19.2-4-28-3.2-12.8-8-24.8-15.2-35.2-15.2-12.8-26.4-20.8-36-24.8-15.2-4.8-31.2-6.4-47.2-6.4-21.6 0-40.8 3.2-60-0.8-0.8 0-1.6-0.8-1.6-0.8-4.8-1.6-8.8-3.2-11.2-5.6-21.6-21.6-0.8-60-35.2-94.4-34.4-34.4-129.6-35.2-129.6-35.2v0.8c-4.8 23.2-100 489.6-59.2 531.2 0.8 0.8 1.6 1.6 2.4 1.6-25.6-33.6 2.4-220.8 2.4-220.8L278.4 944s-28 6.4-63.2 12.8c148.8-20 354.4-68 369.6-72h0.8S571.2 786.4 544.8 760z" fill="#FFD8AF" p-id="1974"></path><path d="M304 560c19.2 4 38.4 0.8 60 0.8h1.6c17.6 0 30.4-0.8 45.6 6.4 9.6 4.8 20.8 12 36 24.8 7.2 6.4 12 19.2 15.2 35.2 1.6 8.8 3.2 18.4 4 28 4 34.4 3.2 70.4 5.6 79.2 0 1.6 0.8 2.4 1.6 1.6L856 328 696 168S278.4 537.6 302.4 559.2c0 0 0.8 0.8 1.6 0.8z" fill="#3FA7F7" p-id="1975"></path></svg>