<?xml version="1.0" standalone="no"?><!DOCTYPE svg PUBLIC "-//W3C//DTD SVG 1.1//EN" "http://www.w3.org/Graphics/SVG/1.1/DTD/svg11.dtd"><svg t="1562297911824" class="icon" viewBox="0 0 1024 1024" version="1.1" xmlns="http://www.w3.org/2000/svg" p-id="2097" xmlns:xlink="http://www.w3.org/1999/xlink" width="50" height="50"><defs><style type="text/css"></style></defs><path d="M508 928c-172 0-320.8-100-392-244.8 53.6 165.6 208.8 284.8 392 284.8 119.2 0 226.4-50.4 301.6-131.2l-20-12c-76 64-174.4 103.2-281.6 103.2zM834.4 807.2c28.8-36.8 51.2-79.2 65.6-124-20 41.6-47.2 79.2-79.2 112.8l13.6 11.2z" fill="#307DB8" p-id="2098"></path><path d="M508 928c107.2 0 205.6-39.2 281.6-103.2L720 784l0.8-0.8L648 728l4-6.4-48-30.4c-17.6 13.6-41.6 15.2-60.8 4-24-13.6-57.6-34.4-61.6-66.4s15.2-105.6 15.2-105.6 29.6 30.4 53.6 34.4c12.8 2.4 80.8 4 88.8 54.4 3.2 22.4 4 30.4 3.2 32.8l36 37.6 1.6-2.4 72 56 68.8 60c32-32.8 58.4-70.4 79.2-112.8 28-57.6 44-122.4 44-191.2C944 251.2 748.8 56 508 56S72 251.2 72 492c0 68.8 16 133.6 44 191.2 71.2 144.8 220 244.8 392 244.8zM800 312c52.8 0 96 43.2 96 96s-43.2 96-96 96-96-43.2-96-96 43.2-96 96-96zM504 200c52.8 0 96 43.2 96 96s-43.2 96-96 96-96-43.2-96-96 43.2-96 96-96zM152 456c0-52.8 43.2-96 96-96s96 43.2 96 96-43.2 96-96 96-96-43.2-96-96z" fill="#3A97DE" p-id="2099"></path><path d="M248 456m-96 0a96 96 0 1 0 192 0 96 96 0 1 0-192 0Z" fill="#E4C25A" p-id="2100"></path><path d="M504 296m-96 0a96 96 0 1 0 192 0 96 96 0 1 0-192 0Z" fill="#E54B9B" p-id="2101"></path><path d="M800 408m-96 0a96 96 0 1 0 192 0 96 96 0 1 0-192 0Z" fill="#E14B4B" p-id="2102"></path><path d="M642.4 644.8c0.8-2.4 0.8-10.4-3.2-32.8-8-50.4-76-52-88.8-54.4-24-4-53.6-34.4-53.6-34.4s-19.2 73.6-15.2 105.6 36.8 52.8 61.6 66.4c19.2 11.2 43.2 9.6 60.8-4l48 30.4 26.4-39.2-36-37.6z" fill="#E4C25A" p-id="2103"></path><path d="M678.4 682.4l-26.4 39.2-4 6.4 72.8 55.2L752 736l-72-56z" fill="#DDDADC" p-id="2104"></path><path d="M834.4 807.2l-13.6-11.2L752 736l-31.2 47.2-0.8 0.8 69.6 40.8 20 12L992 944z" fill="#667273" p-id="2105"></path></svg>