<?xml version="1.0" standalone="no"?><!DOCTYPE svg PUBLIC "-//W3C//DTD SVG 1.1//EN" "http://www.w3.org/Graphics/SVG/1.1/DTD/svg11.dtd"><svg class="icon" width="50px" height="50.00px" viewBox="0 0 1024 1024" version="1.1" xmlns="http://www.w3.org/2000/svg"><path d="M588.010667 845.589333a141.824 141.824 0 0 1-157.12 0l-54.848-36.48a1516.714667 1516.714667 0 0 1-127.466667-96.234666c-88.64-75.072-190.378667-179.349333-190.4-320.704 0-114.816 78.421333-213.312 190.976-235.882667 99.541333-19.968 191.210667 21.418667 244.053333 93.226667a19.712 19.712 0 0 0 31.402667 0.213333c53.376-70.037333 144.298667-109.952 242.730667-89.749333 112 22.997333 189.866667 121.344 189.866666 235.690666-0.021333 140.608-100.821333 244.053333-188.629333 318.421334a1492.352 1492.352 0 0 1-125.717333 94.997333l-54.848 36.48z" fill="#A5637B" /><path d="M507.690667 257.28a19.328 19.328 0 0 1-14.506667-7.765333C440.384 177.706667 348.714667 136.32 249.173333 156.288c-112.576 22.592-190.976 121.066667-190.976 235.904 0 141.333333 101.76 245.610667 190.4 320.682667a1515.264 1515.264 0 0 0 127.466667 96.256l54.826667 36.48a141.781333 141.781333 0 0 0 76.8 23.68V257.28z" fill="#CC81A8" /></svg>