<?xml version="1.0" standalone="no"?><!DOCTYPE svg PUBLIC "-//W3C//DTD SVG 1.1//EN" "http://www.w3.org/Graphics/SVG/1.1/DTD/svg11.dtd"><svg class="icon" width="50px" height="50.00px" viewBox="0 0 1024 1024" version="1.1" xmlns="http://www.w3.org/2000/svg"><path d="M432.469333 186.88l44.608 104.021333c5.077333 15.146667 24.96 28.373333 47.018667 28.373334H876.373333c48.256 0 87.36 39.125333 89.472 88v256c-2.090667 98.453333-79.893333 180.309333-181.888 189.504-181.568 16.405333-364.373333 16.405333-545.941333 0-101.994667-9.194667-179.818667-91.050667-179.818667-188.650667V351.210667c0-159.914667 83.136-185.621333 185.152-194.837334 47.253333-4.266667 99.989333-7.253333 136.661334-3.114666 15.488 1.749333 43.690667 12.565333 52.48 33.621333z" fill="#CCA57A" /><path d="M473.685333 285.696a54.613333 54.613333 0 0 0 50.410667 33.6H876.373333a87.04 87.04 0 0 1 59.157334 23.168v-3.029333a151.338667 151.338667 0 0 0-151.338667-151.338667H432.981333l40.704 97.6z" fill="#CCCCCC" /></svg>