<?xml version="1.0" standalone="no"?><!DOCTYPE svg PUBLIC "-//W3C//DTD SVG 1.1//EN" "http://www.w3.org/Graphics/SVG/1.1/DTD/svg11.dtd"><svg class="icon" width="50px" height="50.00px" viewBox="0 0 1024 1024" version="1.1" xmlns="http://www.w3.org/2000/svg"><path d="M930.901333 512c0 231.36-187.541333 418.901333-418.901333 418.901333-231.36 0-418.901333-187.541333-418.901333-418.901333C93.098667 280.64 280.64 93.098667 512 93.098667c231.36 0 418.901333 187.52 418.901333 418.901333" fill="#4B71AD" /><path d="M711.744 138.389333c-36.437333 34.005333-70.741333 70.144-104.064 107.242667-3.84 4.266667-7.509333 8.661333-11.306667 12.928l-1.472-0.149333c-24.512-2.24-49.216-3.882667-73.813333-5.76l-74.304-4.266667a2446.250667 2446.250667 0 0 0-74.837333-2.56 56.426667 56.426667 0 0 0-46.869334 24.341333 55.829333 55.829333 0 0 0 14.634667 77.568c20.736 14.144 41.728 27.52 62.72 40.96l57.173333 35.456-1.557333 2.005334c-1.621333 2.069333-1.536 2.581333-2.389333 3.989333-1.386667 2.282667-2.816 4.693333-4.565334 6.826667a81.322667 81.322667 0 0 1-12.096 12.501333 140.138667 140.138667 0 0 1-15.722666 11.690667c-2.965333 1.834667-6.101333 3.818667-9.472 5.546666l-18.197334 5.76c-24.917333 8.426667-49.792 18.56-74.709333 34.133334a36.394667 36.394667 0 0 0 0 61.717333c24.896 15.573333 49.792 25.685333 74.709333 34.133333 6.442667 2.005333 11.968 3.946667 19.157334 5.674667 9.066667 1.493333 18.389333 2.922667 27.754666 2.986667a187.306667 187.306667 0 0 0 56.533334-6.613334 217.685333 217.685333 0 0 0 53.610666-22.613333c8.554667-4.864 16.725333-10.432 24.704-16.341333l18.56-14.698667c19.84-15.36 39.488-30.933333 58.944-46.677333a3035.925333 3035.925333 0 0 0 114.176-97.152c37.12-33.344 73.258667-67.626667 107.242667-104.064 1.002667-1.066667 1.877333-2.24 2.816-3.349334l51.328-51.328a77.696 77.696 0 0 0 0-109.888 154.666667 154.666667 0 0 0-218.688 0" fill="#739AE7" /></svg>