<?xml version="1.0" standalone="no"?><!DOCTYPE svg PUBLIC "-//W3C//DTD SVG 1.1//EN" "http://www.w3.org/Graphics/SVG/1.1/DTD/svg11.dtd"><svg class="icon" width="50px" height="50.00px" viewBox="0 0 1024 1024" version="1.1" xmlns="http://www.w3.org/2000/svg"><path d="M930.901333 511.232C930.901333 742.570667 743.36 930.133333 512 930.133333c-231.36 0-418.922667-187.562667-418.922667-418.901333C93.077333 279.872 280.64 92.309333 512 92.309333s418.901333 187.562667 418.901333 418.922667" fill="#CCA57A" /><path d="M445.226667 401.408c-60.736 60.714667-86.4 160.768-40.490667 206.656 45.866667 45.888 145.92 20.224 206.634667-40.490667 37.589333-37.568 51.285333-79.765333 45.397333-117.333333-4.202667-26.773333 5.888-53.824 25.728-72.32L914.645333 166.826667c20.16-18.773333 22.101333-50.986667 2.837334-70.698667a48.64 48.64 0 0 0-70.4 0.853333L634.88 330.261333c-18.496 19.84-45.525333 29.930667-72.32 25.749334-37.568-5.888-79.744 7.808-117.333333 45.376" fill="#CCCCCC" /></svg>