<?xml version="1.0" standalone="no"?><!DOCTYPE svg PUBLIC "-//W3C//DTD SVG 1.1//EN" "http://www.w3.org/Graphics/SVG/1.1/DTD/svg11.dtd"><svg class="icon" width="50px" height="50.00px" viewBox="0 0 1024 1024" version="1.1" xmlns="http://www.w3.org/2000/svg"><path d="M959.893333 310.4a155.712 155.712 0 1 1-311.424 0 155.712 155.712 0 0 1 311.424 0" fill="#DD8983" /><path d="M825.514667 850.816c-153.877333 22.613333-473.173333 22.613333-627.029334 0-77.994667-12.714667-140.309333-92.053333-140.309333-168.405333v-182.869334c0-76.330667 62.293333-155.669333 140.309333-168.384 153.877333-22.613333 473.152-22.613333 627.029334 0 77.994667 12.693333 140.309333 92.053333 140.309333 168.384v182.869334c0 76.330667-62.314667 155.712-140.309333 168.405333" fill="#B3B7BC" /><path d="M662.613333 850.816a1595.605333 1595.605333 0 0 1-464.128 0c-77.994667-12.714667-140.309333-92.053333-140.309333-168.405333V336.64c0-76.330667 62.293333-155.690667 140.309333-168.384a1594.794667 1594.794667 0 0 1 464.128 0c77.994667 12.693333 140.288 92.053333 140.288 168.384v345.770667c0 76.330667-62.293333 155.712-140.288 168.405333" fill="#CCCCCC" /><path d="M261.546667 419.136H191.04a18.474667 18.474667 0 0 1-18.453333-18.474667v-70.506666c0-10.176 8.256-18.432 18.453333-18.432h70.506667c10.197333 0 18.453333 8.256 18.453333 18.432v70.506666a18.474667 18.474667 0 0 1-18.453333 18.474667M436.096 419.136h-70.506667a18.474667 18.474667 0 0 1-18.453333-18.474667v-70.506666c0-10.176 8.256-18.432 18.453333-18.432h70.506667c10.176 0 18.453333 8.256 18.453333 18.432v70.506666a18.474667 18.474667 0 0 1-18.453333 18.474667M610.624 419.136h-70.506667a18.474667 18.474667 0 0 1-18.453333-18.474667v-70.506666c0-10.176 8.277333-18.432 18.453333-18.432h70.506667c10.197333 0 18.474667 8.256 18.474667 18.432v70.506666a18.474667 18.474667 0 0 1-18.474667 18.474667M261.546667 593.685333H191.04a18.474667 18.474667 0 0 1-18.453333-18.474666v-70.506667c0-10.176 8.256-18.432 18.453333-18.432h70.506667c10.197333 0 18.453333 8.256 18.453333 18.432v70.506667a18.474667 18.474667 0 0 1-18.453333 18.474666M436.096 593.685333h-70.506667a18.474667 18.474667 0 0 1-18.453333-18.474666v-70.506667c0-10.176 8.256-18.432 18.453333-18.432h70.506667c10.176 0 18.453333 8.256 18.453333 18.432v70.506667a18.474667 18.474667 0 0 1-18.453333 18.474666M610.624 593.685333h-70.506667a18.474667 18.474667 0 0 1-18.453333-18.474666v-70.506667c0-10.176 8.277333-18.432 18.453333-18.432h70.506667c10.197333 0 18.474667 8.256 18.474667 18.432v70.506667a18.474667 18.474667 0 0 1-18.474667 18.474666" fill="#B3B7BC" /></svg>