<?xml version="1.0" standalone="no"?><!DOCTYPE svg PUBLIC "-//W3C//DTD SVG 1.1//EN" "http://www.w3.org/Graphics/SVG/1.1/DTD/svg11.dtd"><svg class="icon" width="50px" height="50.00px" viewBox="0 0 1024 1024" version="1.1" xmlns="http://www.w3.org/2000/svg"><path d="M320.8 499.2h382.4v25.6H320.8z" fill="#9FA0A6" /><path d="M320.8 499.2h382.4v25.6H320.8z" fill="#9FA0A6" /><path d="M789.1 223.7h177.3v731.4c0 37.8-28.7 66.5-66.5 66.5h-709c-37.8 0-66.5-28.7-66.5-66.5V68.8c0-37.8 28.7-66.5 66.5-66.5h554.2v177.3h44.2v44.1z m-66.6-22.1V24.4H190.8c-24.5 0-44.5 20-44.5 44.5v886.3c0 24.5 20 44.5 44.5 44.5h709c24.5 0 44.5-20 44.5-44.5V245.8H767v-44.5h-44.5v0.3z" fill="#9FA0A6" /><path d="M212.8 666.9h664.9v44.5H212.8z" fill="#9FA0A6" /><path d="M102.1 113h354.5c24.5 0 44.5 20 44.5 44.5V512c0 24.5-20 44.5-44.5 44.5H102.1c-24.5 0-44.5-20-44.5-44.5V157.2c0.1-24.2 20-44.2 44.5-44.2z" fill="#3D88F4" /><path d="M383.7 273.6c5.7-15.4 8.2-29.3 7.6-41.1-0.6-13-4.8-23.6-12.7-31.5-15.4-15.4-55.4-12.7-99.2 6.7-3-0.3-6-0.3-9.4-0.3-14.8 0-29.6 2.4-43.9 7.6-13.6 4.8-26.3 11.8-37.5 20.6-22.7 17.8-38.7 43-45.7 70.8l-2.4 9.7 6-7.9c16.3-20.9 32.7-36 52-47.2l-8.5 8.5c-16.6 16.6-31.8 35.4-43.9 55.7-11.2 17.8-20.3 37.2-26 55.4-5.7 17.2-8.5 33.6-8.5 46.9 0.3 13.9 3.6 24.5 9.7 30.6 8.5 8.5 20.3 12.7 34.5 12.7 15.7 0 34.5-5.1 55.7-15.4 18.1 9.1 37.8 13.6 58.4 13.6 56 0 105.9-35.7 124-88.6l0.9-2.7H321l-0.6 1.2c-9.7 17.5-27.8 28.7-48.1 28.7-20 0-38.4-11.2-48.1-28.7-3.9-7.3-6-15.7-6.4-23.9h182.1l0.3-1.8c0.6-4.8 0.6-9.7 0.6-14.8-0.1-22.7-5.9-45.1-17.1-64.8zM148.1 387.1c10 25.4 27.8 46.9 50.8 61.7-12.4 5.4-23.6 8.5-33.3 8.8-10.3 0.6-18.1-1.5-23.3-6.7-10.5-10.9-8.4-33.9 5.8-63.8z m229-123.8c-6.7-9.7-14.8-18.5-24.2-26.3-9.1-7.6-19.1-13.6-29.6-18.5 24.5-9.7 42.7-9.7 51.7-0.3 8.1 8.5 9 24.3 2.1 45.1zM218 317.2c2.7-26.6 24.8-46.9 51.7-46.9 26.9 0 49.3 20.6 51.7 46.9H218z" fill="#FFFFFF" /></svg>