<?xml version="1.0" standalone="no"?><!DOCTYPE svg PUBLIC "-//W3C//DTD SVG 1.1//EN" "http://www.w3.org/Graphics/SVG/1.1/DTD/svg11.dtd"><svg class="icon" width="50px" height="50.00px" viewBox="0 0 1024 1024" version="1.1" xmlns="http://www.w3.org/2000/svg"><path d="M294.6 733.5h434.8v29.1H294.6zM294.6 661.1h434.8v29.1H294.6zM294.6 588.7h434.8v29.1H294.6z" fill="#9FA0A6" /><path d="M787.8 225h176.5v728.1c0 37.6-28.6 66.2-66.2 66.2H192.2c-37.6 0-66.2-28.6-66.2-66.2V70.9c0-37.6 28.6-66.2 66.2-66.2h551.6v176.5h44V225z m-65.9-22.2V26.3H192.2c-24.4 0-44.3 19.9-44.3 44.3v882.3c0 24.4 19.9 44.3 44.3 44.3H898c24.4 0 44.3-19.9 44.3-44.3V247H765.8v-44.3c0 0.1-43.9 0.1-43.9 0.1z" fill="#9FA0A6" /><path d="M104 114.5h352.9c24.4 0 44.3 19.9 44.3 44.3v352.9c0 24.4-19.9 44.3-44.3 44.3H104c-24.4 0-44.3-19.9-44.3-44.3V158.8c0.3-24.4 20.2-44.3 44.3-44.3z" fill="#1F5ABC" /><path d="M350 211.5c-9 6.3-18.1 11.7-27.7 19.9-7.2 6-20.5 14.2-21.4 25.3-1.2 16.9 24.7 32.5 11.1 53.6-5.1 8.1-14.2 11.7-25.3 16.6-1.2-2.4 3-4.5 4.8-7.2 17.2-25-18.1-33.1-13.6-63.8 4.6-30 39.6-40.2 72.1-44.4z" fill="#FFFFFF" /><path d="M240.1 314.2c-8.1 3.9-21.7 4.5-27.7 12.6 6 4.5 14.8 4.2 22.9 4.8 33.4 1.5 75-1.2 103.6-6.3 0.9 2.1-3.9 5.7-7.2 7.8-18.1 13.2-73.8 16.9-112 14.2-12.9-0.9-42.5-4.2-42.8-15.7-0.3-13.9 35.8-15.4 50.6-16.6 3-0.5 8.4-1.4 12.6-0.8z m-16.6 35.5c3.6 0.6-2.7 2.7-1.5 5.4 13.6 13.6 55.7 9.6 76.5 5.4 4.2-0.9 8.7-3.6 11.7-3 7.8 0.6 12.9 9.9 19.9 11.1-24.1 10.8-70.5 16-104.2 9.3-8.7-1.8-24.1-6.3-24.4-13.6-0.9-9.2 15.1-13.4 22-14.6zM233.8 381.9c2.4 0.9-0.9 2.1-0.9 3 7.2 12.3 42.8 8.1 60.8 3.9 3.6-0.9 7.2-3.3 10.2-3 9 0.6 12.6 10.2 20.5 11.7-25.3 15.4-86.1 21.7-111.4 2.4-0.9-13.8 10.5-15.3 20.8-18z" fill="#FFFFFF" /><path d="M210.9 405.7c-7.5 1.8-26.8-0.9-27.7 9.3-0.3 3.9 6.6 8.7 11.1 10.2 25.6 9.6 77.4 11.1 120.1 6.3 19.9-2.4 56.9-9 52.1-29.2 6 0.6 11.1 4.5 11.7 10.2 2.4 21.7-47.6 31-68.1 33.1-44 4.8-99.1 3.9-132.8-7.8-10.8-3.9-24.4-10.8-23.8-21.4 1.7-17.3 44.1-22.1 57.4-10.7z" fill="#FFFFFF" /><path d="M278 471c-29.5-3.3-58.1-7.5-82.2-18.1 62.7 15.1 154.2 13.9 198.2-18 2.4-1.8 4.5-5.1 7.8-4.8-11.1 33.1-53.6 35.5-90 41 0-0.1-33.8-0.1-33.8-0.1zM298.5 157.6c5.4 5.1 9.3 15.1 9.3 25.3 0 30.4-32.5 48.2-48.2 68.7-3.6 4.5-7.8 11.7-7.8 19 0.3 16.6 17.5 35.2 23.8 49.1-11.1-7.2-24.4-16.9-34-28.3-9.3-11.4-19-29.8-10.2-45.8 12.9-24.1 51.8-38.2 65.6-63.8 3.3-6.8 6-16.1 1.5-24.2zM345.2 322c16.3-13.9 44-8.4 44.9 15.1 1.2 27.4-28.6 42.8-50.6 44.3 10.2-9.6 36.7-25 31.6-47.3-2.1-9.4-13.3-14.8-25.9-12.1z" fill="#FFFFFF" /></svg>