<?xml version="1.0" standalone="no"?><!DOCTYPE svg PUBLIC "-//W3C//DTD SVG 1.1//EN" "http://www.w3.org/Graphics/SVG/1.1/DTD/svg11.dtd"><svg class="icon" width="50px" height="50.00px" viewBox="0 0 1024 1024" version="1.1" xmlns="http://www.w3.org/2000/svg"><path d="M930.922667 512c0 231.36-187.562667 418.901333-418.922667 418.901333S93.098667 743.36 93.098667 512C93.098667 280.64 280.64 93.098667 512 93.098667c231.36 0 418.922667 187.52 418.922667 418.901333" fill="#CCA57A" /><path d="M308.522667 610.538667c-14.293333 0-23.04 15.530667-15.872 27.925333 11.136 19.264 24.725333 36.906667 40.341333 52.544A252.309333 252.309333 0 0 0 512 765.162667a252.266667 252.266667 0 0 0 179.029333-74.154667c15.616-15.616 29.226667-33.28 40.32-52.544 7.189333-12.394667-1.536-27.946667-15.850666-27.946667H308.522667zM425.386667 402.389333a64.042667 64.042667 0 1 1-128.064 0 64.042667 64.042667 0 0 1 128.085333 0M688.384 481.706667c-5.632 0-11.349333-1.450667-16.533333-4.522667l-72.533334-42.752a32.618667 32.618667 0 0 1-0.96-55.552l72.512-46.314667a32.554667 32.554667 0 0 1 45.013334 9.92 32.576 32.576 0 0 1-9.92 45.013334l-27.754667 17.749333 26.773333 15.765333a32.597333 32.597333 0 0 1-16.597333 60.693334" fill="#A8835B" /></svg>