<?xml version="1.0" standalone="no"?><!DOCTYPE svg PUBLIC "-//W3C//DTD SVG 1.1//EN" "http://www.w3.org/Graphics/SVG/1.1/DTD/svg11.dtd"><svg t="1562297972269" class="icon" viewBox="0 0 1024 1024" version="1.1" xmlns="http://www.w3.org/2000/svg" p-id="2479" xmlns:xlink="http://www.w3.org/1999/xlink" width="50" height="50"><defs><style type="text/css"></style></defs><path d="M742.4 673.6c-52 44-116.8 72.8-188 81.6L696.8 1000l57.6-93.6 125.6-11.2-137.6-221.6zM152 891.2l125.6 12 56.8 93.6 141.6-242.4c-71.2-7.2-136.8-36-188.8-80L152 891.2z" fill="#E4C25A" p-id="2480"></path><path d="M868.8 404C869.6 208.8 712 48.8 516 48 319.2 47.2 160 206.4 159.2 402.4c0 109.6 49.6 208 128 272.8 52 43.2 117.6 72 188.8 80 12 1.6 24 1.6 36 1.6 14.4 0 28.8-0.8 42.4-2.4 71.2-8 136-37.6 188-81.6 76.8-64 125.6-160 126.4-268.8zM517.6 606.4c-110.4-0.8-199.2-89.6-199.2-200s90.4-200 200.8-200c110.4 0.8 199.2 90.4 199.2 200.8-0.8 88.8-59.2 164-139.2 189.6-2.4 0.8-5.6 1.6-8 2.4h-1.6c-2.4 0.8-4.8 1.6-7.2 1.6-0.8 0-1.6 0-2.4 0.8-2.4 0.8-4 0.8-6.4 1.6-0.8 0-2.4 0.8-3.2 0.8-1.6 0-4 0.8-5.6 0.8-1.6 0-3.2 0-4.8 0.8h-19.2c-1.6 0.8-2.4 0.8-3.2 0.8z" fill="#3A97DE" p-id="2481"></path><path d="M718.4 407.2c-0.8 88.8-59.2 164-139.2 189.6 80.8-25.6 139.2-100 139.2-189.6 0.8-110.4-88-200-198.4-200.8-110.4 0-200.8 89.6-200.8 200s88.8 199.2 199.2 200h2.4v-400c109.6 0.8 198.4 91.2 197.6 200.8z" fill="#BEDF9F" p-id="2482"></path><path d="M578.4 596.8c-2.4 0.8-5.6 1.6-8 2.4 3.2 0 5.6-0.8 8-2.4zM549.6 604c-1.6 0-4 0.8-5.6 0.8 1.6 0 3.2-0.8 5.6-0.8zM559.2 602.4c-2.4 0.8-4 0.8-6.4 1.6 2.4-0.8 4.8-1.6 6.4-1.6zM568.8 600c-2.4 0.8-4.8 0.8-7.2 1.6 2.4-0.8 4.8-0.8 7.2-1.6zM528.8 606.4h-4 4zM539.2 605.6h-4.8 4.8z" fill="#BEDF9F" p-id="2483"></path><path d="M524.8 606.4H539.2c1.6 0 3.2 0 4.8-0.8 1.6 0 4-0.8 5.6-0.8 0.8 0 2.4-0.8 3.2-0.8 2.4 0 4-0.8 6.4-1.6 0.8 0 1.6 0 2.4-0.8 2.4-0.8 4.8-0.8 7.2-1.6h1.6c2.4-0.8 5.6-1.6 8-2.4C659.2 572 717.6 496.8 717.6 408c0.8-110.4-88-200-198.4-200.8v400c2.4-0.8 4-0.8 5.6-0.8z" fill="#9CB882" p-id="2484"></path></svg>