<?xml version="1.0" standalone="no"?><!DOCTYPE svg PUBLIC "-//W3C//DTD SVG 1.1//EN" "http://www.w3.org/Graphics/SVG/1.1/DTD/svg11.dtd"><svg class="icon" width="50px" height="50.00px" viewBox="0 0 1024 1024" version="1.1" xmlns="http://www.w3.org/2000/svg"><path d="M930.922667 512c0 231.36-187.562667 418.901333-418.922667 418.901333S93.098667 743.36 93.098667 512c0-231.36 187.52-418.901333 418.901333-418.901333 231.36 0 418.922667 187.52 418.922667 418.901333" fill="#4B71AD" /><path d="M864.234667 362.133333L451.754667 665.301333a64 64 0 0 1-89.472-89.472L665.450667 163.349333a142.186667 142.186667 0 1 1 198.784 198.784" fill="#739AE7" /><path d="M879.018667 399.125333a177.152 177.152 0 0 1-250.538667 0 177.130667 177.130667 0 0 1 0-250.538666 177.152 177.152 0 1 1 250.538667 250.538666" fill="#B3B7BC" /></svg>