<?xml version="1.0" standalone="no"?><!DOCTYPE svg PUBLIC "-//W3C//DTD SVG 1.1//EN" "http://www.w3.org/Graphics/SVG/1.1/DTD/svg11.dtd"><svg class="icon" width="50px" height="50.00px" viewBox="0 0 1024 1024" version="1.1" xmlns="http://www.w3.org/2000/svg"><path d="M930.901333 512c0 231.36-187.541333 418.901333-418.901333 418.901333-231.36 0-418.901333-187.541333-418.901333-418.901333C93.098667 280.64 280.64 93.098667 512 93.098667c231.36 0 418.901333 187.52 418.901333 418.901333" fill="#4B71AD" /><path d="M331.904 286.144c154.666667-92.544 330.773333-162.282667 521.92-203.392a56.490667 56.490667 0 0 1 67.2 67.221333c-41.088 191.146667-110.826667 367.253333-203.370667 521.92-16.213333 27.093333-57.664 18.517333-61.952-12.778666a1191.146667 1191.146667 0 0 0-38.250666-176.853334 142.357333 142.357333 0 0 0-95.893334-95.914666 1194.112 1194.112 0 0 0-176.874666-38.250667c-31.296-4.288-39.893333-45.738667-12.8-61.952" fill="#739AE7" /></svg>