<?xml version="1.0" standalone="no"?><!DOCTYPE svg PUBLIC "-//W3C//DTD SVG 1.1//EN" "http://www.w3.org/Graphics/SVG/1.1/DTD/svg11.dtd"><svg class="icon" width="50px" height="50.00px" viewBox="0 0 1024 1024" version="1.1" xmlns="http://www.w3.org/2000/svg"><path d="M25.664 491.946667l46.954667 266.346666c14.656 83.050667 93.184 141.056 181.376 133.589334 157.013333-13.290667 312.576-40.746667 464.682666-81.92 85.418667-23.146667 139.370667-104.512 124.736-187.562667l-46.976-266.368c-14.634667-83.050667-93.162667-141.056-181.354666-133.589333A2624.426667 2624.426667 0 0 0 150.4 304.384C64.96 327.530667 11.008 408.896 25.664 491.946667" fill="#B3B7BC" /><path d="M750.016 128.725333c-174.805333 14.805333-302.229333 37.269333-471.552 83.157334-95.146667 25.749333-155.2 116.352-138.88 208.832l45.909333 260.373333 6.378667 36.181333 7.253333 41.152c8.789333 49.834667-36.138667 92.48-85.44 81.088 34.325333 36.309333 85.418667 57.024 140.309334 52.373334 58.026667-4.906667 180.48-23.168 311.530666-44.906667l-0.042666-0.298667c98.496-14.336 190.464-34.176 299.861333-63.829333 95.146667-25.749333 155.2-116.352 138.901333-208.810667l-52.288-296.576c-16.32-92.48-103.744-157.056-201.941333-148.736" fill="#CCCCCC" /><path d="M800.64 411.2l-220.117333 38.826667a24.234667 24.234667 0 0 1-28.053334-19.669334l-5.738666-32.512a24.234667 24.234667 0 0 1 19.626666-28.053333l220.16-38.826667a24.213333 24.213333 0 0 1 28.032 19.648l5.738667 32.533334a24.192 24.192 0 0 1-19.626667 28.053333M826.453333 557.418667l-220.16 38.805333a24.192 24.192 0 0 1-28.032-19.626667l-5.76-32.533333a24.234667 24.234667 0 0 1 19.669334-28.074667l220.117333-38.805333a24.192 24.192 0 0 1 28.032 19.648l5.76 32.533333a24.213333 24.213333 0 0 1-19.626667 28.053334" fill="#B3B7BC" /><path d="M469.013333 561.237333l-123.285333 21.76a24.213333 24.213333 0 0 1-28.053333-19.669333l-21.717334-123.264a24.234667 24.234667 0 0 1 19.626667-28.053333l123.264-21.738667a24.213333 24.213333 0 0 1 28.053333 19.648l21.76 123.285333a24.192 24.192 0 0 1-19.648 28.032" fill="#CC81A8" /></svg>