<?xml version="1.0" standalone="no"?><!DOCTYPE svg PUBLIC "-//W3C//DTD SVG 1.1//EN" "http://www.w3.org/Graphics/SVG/1.1/DTD/svg11.dtd"><svg class="icon" width="50px" height="50.00px" viewBox="0 0 1024 1024" version="1.1" xmlns="http://www.w3.org/2000/svg"><path d="M787.7 225.1h176.4V953c0 37.6-28.6 66.2-66.2 66.2H192.3c-37.6 0-66.2-28.6-66.2-66.2V71c0-37.6 28.6-66.2 66.2-66.2h551.4v176.4H788v43.9h-0.3z m-66.2-21.9V26.8H192.3c-24.4 0-44.2 19.9-44.2 44.2v882c0 24.4 19.9 44.2 44.2 44.2h705.5c24.4 0 44.2-19.9 44.2-44.2V247.1H765.7v-44.2h-44.2v0.3z" fill="#9FA0A6" /><path d="M214.3 886.7h661.6v44.2H214.3zM214.3 776.6h661.6v44.2H214.3zM214.3 666.1h661.6v44.2H214.3z" fill="#9FA0A6" /><path d="M104.1 115h352.8c24.4 0 44.2 19.9 44.2 44.2V512c0 24.4-19.9 44.2-44.2 44.2H104.1c-24.4 0-44.2-19.9-44.2-44.2V158.9c0-24.1 19.9-43.9 44.2-43.9z" fill="#8415F9" /><path d="M161.3 449.7V220.9c0-11.4 9-20.5 20.5-20.5h21.1c7.2 0 13.8 3.6 17.5 9.9l91.2 149c3.6 6 13.2 3.3 13.2-3.6V221.2c0-11.4 9-20.5 20.5-20.5h9.6c11.4 0 20.5 9 20.5 20.5V450c0 11.4-9 20.5-20.5 20.5h-22.6c-7.2 0-13.8-3.6-17.5-9.6l-89.7-145.1c-3.6-6-13.2-3.3-13.2 3.6v130.3c0 11.4-9 20.5-20.5 20.5h-9.6c-11.4 0-20.5-9.1-20.5-20.5z" fill="#FFFFFF" /></svg>