<?xml version="1.0" standalone="no"?><!DOCTYPE svg PUBLIC "-//W3C//DTD SVG 1.1//EN" "http://www.w3.org/Graphics/SVG/1.1/DTD/svg11.dtd"><svg class="icon" width="50px" height="50.00px" viewBox="0 0 1024 1024" version="1.1" xmlns="http://www.w3.org/2000/svg"><path d="M440.917333 233.621333c0 12.672-7.04 23.594667-17.322666 29.44l-30.229334-117.12a54.954667 54.954667 0 0 0-53.205333-41.216h-99.434667c-25.813333 0-48.128 17.962667-53.653333 43.157334l-37.973333 172.778666a44.544 44.544 0 0 1-4.821334 12.16A125.866667 125.866667 0 0 0 128 394.773333V482.773333l328.725333-52.202666 14.144-221.376-29.952-9.002667v33.429333z" fill="#529E90" /><path d="M360.362667 314.176H208.554667A80.576 80.576 0 0 0 128 394.730667v326.570666c0 93.930667 74.88 172.693333 173.034667 181.546667 174.741333 15.786667 234.282667 15.786667 409.024 0 98.133333-8.853333 173.034667-87.616 173.034666-181.546667v-417.493333c0-93.909333-74.88-172.672-173.034666-181.546667-79.274667-7.146667-134.826667-11.050667-188.202667-11.733333-44.458667-0.533333-80.618667 35.626667-80.917333 80l-0.021334 0.576v42.517333a80.576 80.576 0 0 1-80.554666 80.554667" fill="#529E90" /><path d="M699.605333 238.165333c-42.773333-3.861333-79.061333-6.826667-112.341333-8.746666-25.109333-1.472-38.677333 28.842667-20.906667 46.613333l153.706667 153.728c17.216 17.194667 46.677333 5.013333 46.677333-19.328v-106.624c0-33.408-29.504-62.250667-67.136-65.642667" fill="#458276" /><path d="M423.594667 263.061333l-30.229334-117.12a54.954667 54.954667 0 0 0-53.205333-41.216h-99.434667c-25.813333 0-48.128 17.962667-53.653333 43.157334l-25.322667 115.2h261.845334z" fill="#60D1C0" /></svg>