<?xml version="1.0" standalone="no"?><!DOCTYPE svg PUBLIC "-//W3C//DTD SVG 1.1//EN" "http://www.w3.org/Graphics/SVG/1.1/DTD/svg11.dtd"><svg class="icon" width="50px" height="50.00px" viewBox="0 0 1024 1024" version="1.1" xmlns="http://www.w3.org/2000/svg"><path d="M788.5 224.3h176.9v730c0 37.7-28.7 66.4-66.4 66.4H191.4c-37.7 0-66.4-28.7-66.4-66.4V69.7c0-37.7 28.7-66.4 66.4-66.4h553.1v176.9h44.4v44.1h-0.4z m-66.4-22v-177H191.4c-24.5 0-44.4 19.9-44.4 44.4v884.6c0 24.5 19.9 44.4 44.4 44.4H899c24.5 0 44.4-19.9 44.4-44.4v-708H766.5V202h-44.4v0.3z" fill="#9FA0A6" /><path d="M213.4 887.9H877v44.3H213.4v-44.3zM213.4 777.4H877v44.4H213.4zM213.4 666.6H877v44.3H213.4v-44.3z" fill="#9FA0A6" /><path d="M102.9 113.8h353.8c24.5 0 44.4 19.9 44.4 44.4V512c0 24.5-19.9 44.4-44.4 44.4H102.9c-24.5 0-44.4-19.9-44.4-44.4V157.9c0.1-24.2 20-44.1 44.4-44.1z" fill="#FC495B" /><path d="M390.3 493.9c-32 0-60.7-54.9-75.8-90.6-25.4-10.6-53.4-20.5-80.6-26.9-23.8 15.7-64.3 39.2-95.4 39.2-19.3 0-33.2-9.7-38.3-26.6-3.9-13.9-0.6-23.5 3.6-28.7 8.2-11.2 25.1-16.9 50.4-16.9 20.5 0 46.5 3.6 75.5 10.6 18.7-13.3 37.7-28.7 54.6-45-7.5-35.6-15.7-93.3 5.1-119.9 10.3-12.7 26-16.9 45-11.2 20.8 6 28.7 18.7 31.1 28.7 8.8 34.7-31.1 81.5-58 109 6 23.8 13.9 48.9 23.5 71.9 38.6 17.2 84.5 42.9 89.7 70.9 2.1 9.7-0.9 18.7-8.8 26.6-6.8 5.6-14 8.9-21.6 8.9z m-47.4-77.6c19.3 39.2 37.7 57.7 47.4 57.7 1.5 0 3.6-0.6 6.6-3 3.6-3.6 3.6-6 3-8.2-2-10.3-18.3-27.2-57-46.5z m-188.6-52.5c-25.1 0-32 6-34.1 8.8-0.6 0.9-2.4 3.6-0.6 10.6 1.5 6 5.7 12.4 18.7 12.4 16.3 0 39.9-9.1 67.3-25.4-19.6-4.3-36.9-6.4-51.3-6.4z m101.1-3c16.3 4.5 33.2 10.3 48.9 16.3-5.7-14.8-10.3-30.2-14.2-45-11.5 9.9-23.2 19.6-34.7 28.7z m63.1-164.6c-5.7 0-9.7 2.1-13.3 6-10.6 13.3-11.8 46.8-3.6 89.7 31.1-33.2 48-63.7 43.8-80-0.6-2.4-2.4-9.7-16.9-13.9-4-1.2-7-1.8-10-1.8z" fill="#FFFFFF" /></svg>