<?xml version="1.0" standalone="no"?><!DOCTYPE svg PUBLIC "-//W3C//DTD SVG 1.1//EN" "http://www.w3.org/Graphics/SVG/1.1/DTD/svg11.dtd"><svg t="1560001299940" class="icon" style="" viewBox="0 0 1126 1024" version="1.1" xmlns="http://www.w3.org/2000/svg" p-id="6421" xmlns:xlink="http://www.w3.org/1999/xlink" width="35.1875" height="32"><defs><style type="text/css"></style></defs><path d="M856.1664 809.5744A425.1136 425.1136 0 0 0 977.0496 512a426.5984 426.5984 0 0 0-426.6496-426.6496 426.6496 426.6496 0 0 0-303.9232 726.1184l192.256-117.6064 30.6176-69.5296c-34.7648-28.7232-57.6-72.2944-57.6-118.7328V391.1168a135.168 135.168 0 0 1 270.2848 0v114.4832c0 46.336-23.0912 90.624-58.3168 119.7568l29.7472 68.5568 202.7008 115.6608zM550.4 1024c-282.7264 0-512-229.2736-512-512 0-282.7776 229.2736-512 512-512s512 229.2224 512 512c0 282.7264-229.2736 512-512 512z" fill="#ffffff" p-id="6422"></path></svg>