<?xml version="1.0" standalone="no"?><!DOCTYPE svg PUBLIC "-//W3C//DTD SVG 1.1//EN" "http://www.w3.org/Graphics/SVG/1.1/DTD/svg11.dtd"><svg t="1563693691079" class="icon" viewBox="0 0 1024 1024" version="1.1" xmlns="http://www.w3.org/2000/svg" p-id="5034" width="32" height="32" xmlns:xlink="http://www.w3.org/1999/xlink"><defs><style type="text/css"></style></defs><path d="M853.174 696.737c28.072 33.683 15.281 84.631 5.595 94.531-9.69 10.052-8.991 14.873-55.436 57.018-46.746 42.49-140.235 13.435-182.686 0-42.452-13.487-157.819-87.266-264.495-188.665C248.076 556.876 192.194 428.866 169.321 359.31c-22.826-69.754-8.54-94.931 0-118.515 8.54-23.58 24.171-43.583 70.468-70.155 46.194-26.614 62.924-6.364 74.809 0 11.843 6.275 63.576 51.548 81.508 94.337 17.829 42.79 9.34 70.302-4.445 83.287-13.731 12.984-23.519 24.877-34.91 32.936-11.384 7.914-13.781 19.404-12.083 41.592 1.6 22.24 81.857 109.012 97.686 125.031 15.782 16.071 120.259 124.137 156.517 132.445 36.309 8.159 49.445-7.612 53.389-11.889 3.948-4.231 18.23-23.686 34.413-37.218 16.28-13.436 59.729-9.753 70.464-2.188 10.738 7.565 67.969 33.931 96.037 67.764z m0 0M654.855 454.118c-8.903 0-16.866-6.271-18.681-15.334-11.482-57.335-53.196-80.786-53.619-81.018-9.236-5.062-12.619-16.653-7.558-25.888 5.061-9.236 16.652-12.619 25.888-7.559 2.35 1.288 57.757 32.41 72.686 106.98 2.07 10.327-4.629 20.377-14.956 22.441-1.236 0.25-2.5 0.373-3.76 0.378z m89.131 9.717c-9.668 0-17.954-7.321-18.95-17.148-5.239-51.705-25.838-94.72-61.236-127.844-26.816-25.092-52.61-34.934-52.869-35.029-9.891-3.624-14.938-14.565-11.319-24.455 3.624-9.891 14.607-14.957 24.497-11.338 1.296 0.474 32.069 11.947 64.365 41.682 29.681 27.331 66.707 76.088 74.51 153.136 1.064 10.482-6.57 19.836-17.052 20.895-0.65 0.07-1.301 0.101-1.946 0.101z m0 0" fill="#FFBF26" p-id="5035"></path><path d="M825.341 474.298c-10.51 0-19.041-8.498-19.072-19.013-0.228-76.997-28.199-140.963-83.132-190.129-41.719-37.339-84.247-51.864-84.67-52.005-9.972-3.342-15.375-14.133-12.055-24.111 3.319-9.977 14.07-15.392 24.056-12.091 1.992 0.654 49.336 16.597 96.866 58.68 28.03 24.82 50.417 53.669 66.538 85.747 20.122 40.041 30.395 85.052 30.536 133.796 0.033 10.532-8.481 19.094-19.013 19.126h-0.054z m0 0" fill="#FFBF26" p-id="5036"></path></svg>