<?xml version="1.0" standalone="no"?><!DOCTYPE svg PUBLIC "-//W3C//DTD SVG 1.1//EN" "http://www.w3.org/Graphics/SVG/1.1/DTD/svg11.dtd"><svg t="1567945077248" class="icon" viewBox="0 0 1024 1024" version="1.1" xmlns="http://www.w3.org/2000/svg" p-id="2648" width="20" height="20" xmlns:xlink="http://www.w3.org/1999/xlink"><defs><style type="text/css"></style></defs><path d="M191.776 282.56c-11.866 0-23.022 4.621-31.415 13.012-8.39 8.391-13.011 19.547-13.011 31.412v258.001c0 11.046 8.954 20 20 20s20-8.954 20-20V326.984a4.34 4.34 0 0 1 1.295-3.127 4.343 4.343 0 0 1 3.13-1.297h63.481c11.046 0 20-8.954 20-20s-8.954-20-20-20h-63.48zM835.355 742.638a4.343 4.343 0 0 1-3.129 1.296H598.883c-11.046 0-20 8.954-20 20s8.954 20 20 20h233.344c11.864 0 23.02-4.62 31.41-13.009 8.392-8.391 13.014-19.547 13.014-31.414V326.984c0-11.864-4.619-23.02-13.011-31.414-8.391-8.39-19.547-13.01-31.413-13.01H647.693c-11.046 0-20 8.954-20 20s8.954 20 20 20h36.772c9.698 65.357 66.176 115.666 134.188 115.666 6.048 0 12.055-0.403 17.996-1.193v302.479a4.331 4.331 0 0 1-1.294 3.126z m-16.701-344.412c-45.893 0-84.342-32.484-93.563-75.666h107.136c0.836 0 2.057 0.225 3.128 1.297a4.34 4.34 0 0 1 1.296 3.127v69.551a96.13 96.13 0 0 1-17.997 1.691zM457.938 435.375c0.042 0.422 0.075 0.845 0.144 1.267 0.063 0.383 0.162 0.765 0.248 1.147 0.059 0.262 0.1 0.526 0.17 0.788 0.074 0.277 0.18 0.549 0.267 0.825 0.114 0.363 0.215 0.728 0.351 1.087 0.077 0.203 0.18 0.4 0.265 0.602 0.178 0.426 0.349 0.853 0.558 1.272v0.001l22.27 44.493c3.506 7.004 10.567 11.053 17.9 11.053 3.008 0 6.063-0.682 8.937-2.12 9.877-4.944 13.877-16.959 8.933-26.836l-13.319-26.61 26.609-13.321c9.877-4.945 13.876-16.96 8.931-26.837-4.944-9.877-16.961-13.876-26.837-8.931l-44.492 22.273c-0.156 0.078-0.297 0.173-0.451 0.255a19.995 19.995 0 0 0-10.56 18.917c0.013 0.223 0.054 0.449 0.076 0.675zM403.253 582.816c20.879 0 41.012-7.015 57.595-20.236 8.637-6.886 10.056-19.469 3.17-28.105-6.886-8.639-19.47-10.056-28.106-3.17-11.009 8.775-24.76 12.741-38.725 11.169-13.964-1.575-26.488-8.506-35.265-19.516-6.886-8.637-19.47-10.055-28.106-3.171-8.637 6.886-10.057 19.469-3.171 28.106 15.438 19.364 37.478 31.556 62.06 34.328a94.1 94.1 0 0 0 10.548 0.595zM355.118 441.176a19.967 19.967 0 0 0 6.319 1.029c8.376 0 16.183-5.305 18.974-13.689l16.495-49.563c3.488-10.481-2.18-21.805-12.661-25.292-10.479-3.488-21.804 2.18-25.292 12.661l-16.495 49.563c-3.489 10.479 2.18 21.803 12.66 25.291z" fill="#ffffff" p-id="2649"></path><path d="M904.74 254.306c-17.617-17.617-41.04-27.318-65.955-27.318H605.717c-11.046 0-20 8.955-20 20 0 11.046 8.954 20 20 20h233.068c14.23 0 27.608 5.541 37.67 15.603 10.061 10.061 15.602 23.439 15.602 37.669v425.976c0 14.229-5.541 27.607-15.602 37.669-10.061 10.061-23.438 15.602-37.67 15.602h-275.77c-1.751-8.214-4.553-16.194-8.394-23.867-11.93-23.83-32.425-41.589-57.711-50.006l-85.767-28.546 2.963-8.903c24.846 4.536 50.482 0.568 73.617-11.619 27.697-14.596 48.487-39.273 58.542-69.486L613.5 405.075c10.056-30.214 8.2-62.43-5.224-90.714-13.563-28.566-37.268-49.702-66.747-59.513l-6.254-2.082 5.056-15.191c2.606-7.836 2.357-16.24-0.701-23.66-3.43-8.325-10.166-14.688-18.481-17.457l-31.375-10.442a29.765 29.765 0 0 0-9.413-1.522c-5.507 0-10.983 1.528-15.841 4.421-6.897 4.11-12.132 10.688-14.742 18.525l-5.055 15.188-6.256-2.083c-29.479-9.811-61.12-7.097-89.099 7.645-27.695 14.596-48.486 39.274-58.543 69.489L223.593 499.68c-10.055 30.217-8.2 62.432 5.226 90.713 12.388 26.092 33.235 45.984 59.216 56.711l-2.699 8.109-75.997-25.29c-25.285-8.419-52.335-6.485-76.168 5.444-0.414 0.207-0.819 0.424-1.229 0.636V320.26c0-14.229 5.541-27.607 15.602-37.669 10.063-10.062 23.44-15.603 37.669-15.603h92.496c11.046 0 20-8.954 20-20 0-11.045-8.954-20-20-20h-92.496c-24.913 0-48.335 9.702-65.953 27.318-17.616 17.617-27.318 41.04-27.318 65.954v425.975c0 24.913 9.702 48.336 27.319 65.955 17.617 17.614 41.04 27.315 65.952 27.315l653.571 0.001c24.915 0 48.339-9.702 65.955-27.318 17.615-17.616 27.316-41.039 27.316-65.952V320.26c0.002-24.915-9.7-48.338-27.315-65.954z m-404.587-22.678l-2.831 8.505-0.536-0.179-9.652 29.008-14.111-4.696 12.484-37.513 14.646 4.875zM147.546 783.904c-10.062-10.063-15.603-23.44-15.603-37.67v-59.938a59.19 59.19 0 0 1 19.133-15.16c14.276-7.146 30.48-8.305 45.63-3.261l89.725 29.859c6.468 2.151 13.389 1.657 19.496-1.397 6.095-3.053 10.638-8.296 12.793-14.768l11.75-35.302c2.148-6.465 1.653-13.382-1.399-19.485-3.053-6.098-8.298-10.642-14.768-12.796l-6.108-2.033c-19.041-6.338-34.398-20.088-43.242-38.716-8.978-18.912-10.188-40.55-3.407-60.927l67.231-202c6.782-20.376 20.718-36.974 39.238-46.734 18.244-9.612 38.778-11.417 57.818-5.079l5.723 1.905-1.323 3.975c-2.229 6.697-1.713 13.857 1.438 20.131 3.151 6.301 8.568 11 15.263 13.232l40.5 13.48 0.055 0.017 0.469 0.156a26.34 26.34 0 0 0 8.332 1.351 26.51 26.51 0 0 0 11.792-2.785c6.313-3.154 11.016-8.579 13.238-15.266l1.323-3.975 6.254 2.082c19.042 6.337 34.399 20.087 43.243 38.714 8.978 18.915 10.188 40.554 3.406 60.929l-67.234 202.002c-6.78 20.374-20.715 36.97-39.235 46.73-18.225 9.602-38.733 11.412-57.753 5.103l-0.068-0.022-0.013 0.039c-6.058-1.641-12.423-1.009-18.07 1.819-6.104 3.054-10.651 8.301-12.804 14.772l-11.747 35.293c-2.154 6.473-1.659 13.396 1.396 19.496 3.056 6.103 8.305 10.648 14.768 12.795l99.491 33.114c15.149 5.043 27.429 15.683 34.576 29.958a60.925 60.925 0 0 1 2.594 5.962l-336.233-0.001c-14.229 0.002-27.607-5.539-37.668-15.599z m253.243-98.998a14.755 14.755 0 0 1-0.761-0.229l0.005-0.009 0.756 0.238z" fill="#ffffff" p-id="2650"></path></svg>