<?xml version="1.0" standalone="no"?><!DOCTYPE svg PUBLIC "-//W3C//DTD SVG 1.1//EN" "http://www.w3.org/Graphics/SVG/1.1/DTD/svg11.dtd"><svg class="icon" width="50px" height="50.00px" viewBox="0 0 1024 1024" version="1.1" xmlns="http://www.w3.org/2000/svg"><path d="M788 224.9h176.5v728.5c0 37.7-28.6 66.3-66.3 66.3H192.1c-37.7 0-66.3-28.6-66.3-66.3V70.6c0-37.7 28.6-66.3 66.3-66.3H744v176.5h44.3v44l-0.3 0.1z m-66-22V26.4H192.1c-24.4 0-44.3 19.9-44.3 44.3v882.7c0 24.4 19.9 44.3 44.3 44.3h706.2c24.4 0 44.3-19.9 44.3-44.3V247.2H766v-44.3h-44z" fill="#9FA0A6" /><path d="M214.3 887.1h662.2v44.3H214.3zM214.3 776.8h662.2v44.3H214.3zM214.3 666.6h662.2v44.3H214.3z" fill="#9FA0A6" /><path d="M103.8 114.6h353.1c24.4 0 44.3 19.9 44.3 44.3V512c0 24.4-19.9 44.3-44.3 44.3H103.8c-24.4 0-44.3-19.9-44.3-44.3V158.6c0.3-24.1 20.2-44 44.3-44z" fill="#4AA80E" /><path d="M176.7 436.1V228.5c0-5.1 4.2-9.3 9.3-9.3h86.8c24.1 0 41.6 2.1 52.7 6 10.8 3.9 19.6 11.1 26.2 21.7 6.6 10.2 9.9 22.3 9.9 35.5 0 16.9-5.1 31-15.1 41.9-6.3 7.2-14.8 12.7-25.3 16.3-6.9 2.4-8.7 11.1-3 16 3 2.4 5.7 5.1 8.1 7.8 6.3 6.9 15.1 19 25.9 36.8L371 431c3.9 6-0.6 14.2-7.8 14.2h-32.8c-3 0-6-1.5-7.5-4.2l-30.1-45.2c-11.7-17.5-19.6-28.6-24.1-33.1-4.2-4.5-9-7.8-13.9-9.3-4.8-1.8-12.4-2.4-22.9-2.4-5.1 0-9.3 4.2-9.3 9.3v75.9c0 5.1-4.2 9.3-9.3 9.3H186c-5.4-0.1-9.3-4.3-9.3-9.4z m45.5-130.5c0 5.1 4.2 9.3 9.3 9.3h24.4c22 0 35.5-0.9 41-2.7 5.4-1.8 9.6-5.1 12.7-9.6 3-4.5 4.5-10.2 4.5-16.9 0-7.5-2.1-13.9-6-18.4-3.9-4.8-9.6-7.5-17.2-8.7-3.6-0.6-14.8-0.9-33.4-0.9h-26.2c-5.1 0-9.3 4.2-9.3 9.3v38.6h0.2z" fill="#FFFFFF" /></svg>