<?xml version="1.0" standalone="no"?><!DOCTYPE svg PUBLIC "-//W3C//DTD SVG 1.1//EN" "http://www.w3.org/Graphics/SVG/1.1/DTD/svg11.dtd"><svg class="icon" width="50px" height="50.00px" viewBox="0 0 1024 1024" version="1.1" xmlns="http://www.w3.org/2000/svg"><path d="M930.901333 512c0 231.36-187.541333 418.901333-418.901333 418.901333-231.36 0-418.901333-187.541333-418.901333-418.901333C93.098667 280.64 280.64 93.098667 512 93.098667c231.36 0 418.901333 187.541333 418.901333 418.901333" fill="#A5637B" /><path d="M593.450667 640h-162.901334A46.549333 46.549333 0 0 1 384 593.450667v-162.901334c0-25.706667 20.842667-46.549333 46.549333-46.549333h162.901334c25.706667 0 46.549333 20.842667 46.549333 46.549333v162.901334A46.549333 46.549333 0 0 1 593.450667 640" fill="#E28AB4" /></svg>