<?xml version="1.0" standalone="no"?><!DOCTYPE svg PUBLIC "-//W3C//DTD SVG 1.1//EN" "http://www.w3.org/Graphics/SVG/1.1/DTD/svg11.dtd"><svg class="icon" width="50px" height="50.00px" viewBox="0 0 1024 1024" version="1.1" xmlns="http://www.w3.org/2000/svg"><path d="M93.098667 382.890667v289.514666c0 90.304 71.978667 166.016 166.336 174.549334 168 15.146667 337.130667 15.146667 505.130666 0 94.357333-8.533333 166.336-84.266667 166.336-174.549334V382.890667c0-90.282667-71.978667-166.037333-166.336-174.528a2810.24 2810.24 0 0 0-505.130666 0c-94.357333 8.490667-166.336 84.245333-166.336 174.528" fill="#B3B7BC" /><path d="M868.053333 163.52L584.810667 416.362667l-109.354667-110.037334a79.402667 79.402667 0 0 0-112.298667-0.341333l-24.746666 24.576a79.402667 79.402667 0 0 0-0.32 112.298667l173.994666 175.082666 12.565334 12.629334a79.402667 79.402667 0 0 0 113.664-1.088l9.728-10.154667 328.618666-343.36a48.213333 48.213333 0 0 0-0.149333-66.858667L934.869333 165.973333a48.234667 48.234667 0 0 0-66.816-2.474666" fill="#529E90" /></svg>