<?xml version="1.0" standalone="no"?><!DOCTYPE svg PUBLIC "-//W3C//DTD SVG 1.1//EN" "http://www.w3.org/Graphics/SVG/1.1/DTD/svg11.dtd"><svg t="1572358792724" class="icon" viewBox="0 0 1024 1024" version="1.1" xmlns="http://www.w3.org/2000/svg" p-id="4053" width="48" height="48" xmlns:xlink="http://www.w3.org/1999/xlink"><defs><style type="text/css"></style></defs><path d="M967.68 382.976c-10.24-36.864-33.792-67.584-66.56-87.04s-71.68-24.576-107.52-14.336C747.52 190.464 671.744 123.904 578.56 92.16c-91.136-30.72-187.392-26.624-274.432 10.24-25.6-30.72-65.536-51.2-109.568-51.2-78.848 0-143.36 64.512-143.36 143.36 0 41.984 18.432 79.872 48.128 106.496C55.296 392.192 49.152 496.64 81.92 589.824c33.792 95.232 103.424 173.056 195.584 217.088-10.24 71.68 33.792 141.312 104.448 159.744 12.288 3.072 24.576 5.12 36.864 5.12 24.576 0 49.152-6.144 71.68-19.456 33.792-19.456 57.344-50.176 66.56-87.04 3.072-11.264 4.096-21.504 5.12-32.768C694.272 796.672 795.648 694.272 832.512 563.2c11.264 0 22.528-2.048 33.792-5.12 36.864-9.216 68.608-33.792 87.04-66.56 19.456-32.768 24.576-71.68 14.336-108.544zM92.16 194.56c0-56.32 46.08-102.4 102.4-102.4 33.792 0 64.512 16.384 82.944 41.984 0 1.024 1.024 2.048 1.024 4.096 1.024 3.072 3.072 5.12 5.12 7.168 8.192 14.336 13.312 31.744 13.312 50.176 0 56.32-46.08 102.4-102.4 102.4S92.16 250.88 92.16 194.56z m427.008 660.48c-7.168 26.624-23.552 48.128-48.128 62.464-23.552 13.312-51.2 17.408-77.824 10.24-55.296-14.336-87.04-69.632-72.704-125.952 7.168-26.624 23.552-48.128 48.128-62.464 16.384-9.216 32.768-13.312 51.2-13.312 9.216 0 17.408 1.024 26.624 3.072 54.272 14.336 87.04 70.656 72.704 125.952z m38.912-63.488c-13.312-48.128-50.176-88.064-101.376-101.376-36.864-9.216-75.776-4.096-108.544 14.336-25.6 14.336-46.08 36.864-58.368 63.488-79.872-40.96-139.264-108.544-168.96-192.512C92.16 495.616 97.28 403.456 133.12 324.608c18.432 9.216 38.912 13.312 61.44 13.312 78.848 0 143.36-64.512 143.36-143.36 0-19.456-4.096-38.912-11.264-56.32 75.776-31.744 160.768-33.792 239.616-7.168 80.896 27.648 148.48 86.016 189.44 165.888-20.48 12.288-37.888 29.696-50.176 51.2-18.432 31.744-24.576 71.68-14.336 108.544s33.792 67.584 66.56 87.04c10.24 6.144 21.504 11.264 33.792 14.336-33.792 112.64-120.832 200.704-233.472 233.472zM918.528 471.04c-13.312 23.552-35.84 40.96-62.464 48.128-26.624 7.168-54.272 3.072-77.824-10.24s-40.96-35.84-48.128-62.464-3.072-55.296 10.24-77.824c13.312-23.552 35.84-40.96 62.464-48.128 9.216-2.048 17.408-3.072 26.624-3.072 17.408 0 35.84 5.12 51.2 14.336 23.552 13.312 40.96 35.84 48.128 62.464 6.144 25.6 3.072 53.248-10.24 76.8z" fill="#8a8a8a" p-id="4054"></path></svg>