<?xml version="1.0" standalone="no"?><!DOCTYPE svg PUBLIC "-//W3C//DTD SVG 1.1//EN" "http://www.w3.org/Graphics/SVG/1.1/DTD/svg11.dtd"><svg t="1562310646341" class="icon" viewBox="0 0 1024 1024" version="1.1" xmlns="http://www.w3.org/2000/svg" p-id="865" xmlns:xlink="http://www.w3.org/1999/xlink" width="50" height="50"><defs><style type="text/css"></style></defs><path d="M789.7 223.1h177.6v733c0 37.9-28.8 66.7-66.7 66.7H190.1c-37.9 0-66.7-28.8-66.7-66.7V67.9c0-37.9 28.8-66.7 66.7-66.7h555.4v177.6h44.3v44.3zM723.3 201V23.3H190.1c-24.6 0-44.6 20-44.6 44.6v888.2c0 24.6 20 44.6 44.6 44.6h710.6c24.6 0 44.6-20 44.6-44.6V245.2H767.6v-44.6h-44.3v0.4z" fill="#9FA0A6" p-id="866"></path><path d="M212.5 889.4h666.3V934H212.5zM212.5 778.5h666.3v44.6H212.5zM212.5 667.2h666.3v44.6H212.5z" fill="#9FA0A6" p-id="867"></path><path d="M101.2 112.2h355.3c24.6 0 44.6 20 44.6 44.6V512c0 24.6-20 44.6-44.6 44.6H101.2c-24.6 0-44.6-20-44.6-44.6V156.4c0.4-24.2 20.4-44.2 44.6-44.2z" fill="#BC1515" p-id="868"></path><path d="M301.9 305h47.3v48.5h-67.9C239.2 455.9 170.1 457.1 151 455.9h-5.2v-48.5c28.2 0 57.6-3.9 89.4-87 46.1-134.3 139.4-118.8 139.4-118.8v48.5c-53.6-1.5-72.7 54.9-72.7 54.9z" fill="#FFFFFF" p-id="869"></path></svg>