<?xml version="1.0" standalone="no"?><!DOCTYPE svg PUBLIC "-//W3C//DTD SVG 1.1//EN" "http://www.w3.org/Graphics/SVG/1.1/DTD/svg11.dtd"><svg t="1562298035815" class="icon" viewBox="0 0 1024 1024" version="1.1" xmlns="http://www.w3.org/2000/svg" p-id="3112" xmlns:xlink="http://www.w3.org/1999/xlink" width="50" height="50"><defs><style type="text/css"></style></defs><path d="M601.6 229.6l-1.6 2.4c-24.8-8.8-50.4-13.6-76.8-16h-6.4c-21.6 0.8-43.2 2.4-64.8 5.6-115.2 24-206.4 114.4-230.4 229.6v0.8c-0.8 3.2-0.8 6.4-1.6 9.6-0.8 7.2-2.4 14.4-2.4 21.6 0.8 27.2 1.6 57.6 6.4 84l-2.4 1.6c20.8 107.2 100 193.6 203.2 225.6l1.6-1.6c25.6 8.8 46.4 12.8 74.4 14.4 27.2-0.8 57.6-4.8 84-9.6l0.8 0.8c106.4-27.2 189.6-111.2 215.2-218.4l-2.4-1.6s9.6-28.8 9.6-79.2c0-12.8-1.6-26.4-3.2-40 0-0.8 0-2.4-0.8-3.2-0.8-2.4-0.8-5.6-1.6-8 0-1.6-0.8-3.2-0.8-4.8-0.8-2.4-1.6-5.6-2.4-8-27.2-96.8-101.6-175.2-197.6-205.6z" fill="#BEDF9F" p-id="3113"></path><path d="M944 48H80c-17.6 0-32 14.4-32 32v864c0 17.6 14.4 32 32 32h864c17.6 0 32-14.4 32-32V80c0-17.6-14.4-32-32-32z m-51.2 584l-6.4-3.2c-36.8 119.2-130.4 214.4-248 255.2l1.6 3.2c-43.2 16-88 24-134.4 24-73.6 0-146.4-32-146.4-32l2.4-3.2C254.4 829.6 170.4 737.6 136 624l-2.4-9.6c-2.4-8-4-16.8-6.4-25.6-3.2-16-5.6-31.2-7.2-54.4 0-4 0-8-0.8-12v-1.6-9.6-2.4-9.6c0-73.6 32-156 32-156l4.8 3.2c44.8-96 127.2-171.2 228.8-206.4l-0.8-0.8c34.4-12.8 69.6-16.8 106.4-18.4h28c73.6 0 146.4 27.2 146.4 27.2l-2.4 2.4c92.8 38.4 168 112 208.8 204l2.4-2.4c16 42.4 27.2 86.4 32.8 131.2 8.8 72.8-13.6 148.8-13.6 148.8z" fill="#BEDF9F" p-id="3114"></path><path d="M800 444c0 1.6 0.8 3.2 0.8 4.8 0-1.6 0-3.2-0.8-4.8zM220 462.4c0.8-3.2 0.8-6.4 1.6-9.6 0 3.2-0.8 6.4-1.6 9.6zM803.2 457.6c0 0.8 0 2.4 0.8 3.2-0.8-1.6-0.8-2.4-0.8-3.2zM520 216h-3.2 6.4-3.2zM222.4 452c24-115.2 115.2-206.4 230.4-229.6-4 0.8-8 1.6-12 1.6l-54.4-83.2c-101.6 34.4-184 109.6-228.8 206.4l80 56c-1.6 0-9.6 20.8-15.2 48.8zM221.6 569.6L136 624c33.6 113.6 117.6 205.6 226.4 250.4l61.6-79.2c-102.4-32-180.8-118.4-202.4-225.6zM798.4 436c-1.6-5.6-3.2-12-4.8-17.6l77.6-64.8c-40.8-92-116-165.6-208.8-204l-60 80c95.2 30.4 169.6 108.8 196 206.4zM120 512V510.4v1.6zM120.8 535.2c0-4 0-8-0.8-12 0 4 0.8 8 0.8 12zM490.4 120.8h7.2-7.2zM584.8 799.2l53.6 84c118.4-40 211.2-135.2 248-255.2L800 580.8c-25.6 106.4-108.8 191.2-215.2 218.4zM512 120h-7.2 9.6-2.4zM133.6 614.4c-2.4-9.6-4-17.6-6.4-25.6 2.4 8.8 4 17.6 6.4 25.6z" fill="#FFFFFF" p-id="3115"></path><path d="M452 222.4c21.6-3.2 43.2-5.6 64.8-5.6h6.4c26.4 1.6 52 7.2 76.8 16l1.6-2.4 60-80 2.4-2.4s-72.8-27.2-146.4-27.2h-28c-36 1.6-72 6.4-106.4 18.4l1.6 1.6L440 224c4-0.8 8-1.6 12-1.6zM584 798.4c-26.4 4.8-56.8 8.8-84 9.6-27.2-1.6-48-4.8-74.4-14.4l-1.6 1.6-61.6 79.2-2.4 3.2s72.8 32 146.4 32c45.6 0 91.2-8 134.4-24l-1.6-3.2-53.6-84H584zM224 568c-4.8-26.4-5.6-56.8-6.4-84l2.4-21.6c0.8-3.2 0.8-6.4 1.6-9.6v-0.8c5.6-28 14.4-48.8 14.4-48.8l-80-56-4-3.2s-32 83.2-32 156v22.4c0 4 0 8 0.8 12 0.8 22.4 3.2 37.6 7.2 54.4 1.6 8 4 16 6.4 25.6l2.4 9.6 85.6-54.4 1.6-1.6zM873.6 352l-2.4 2.4-77.6 64.8c1.6 5.6 3.2 11.2 4.8 17.6 0.8 2.4 1.6 5.6 2.4 8 0 1.6 0.8 3.2 0.8 4.8 0.8 2.4 0.8 5.6 1.6 8 0 0.8 0 2.4 0.8 3.2 2.4 13.6 4 26.4 3.2 40 0 50.4-9.6 79.2-9.6 79.2l2.4 1.6 86.4 47.2 6.4 3.2s22.4-76 13.6-148.8c-5.6-44.8-16.8-88.8-32.8-131.2z" fill="#E14B4B" p-id="3116"></path></svg>