<?xml version="1.0" standalone="no"?><!DOCTYPE svg PUBLIC "-//W3C//DTD SVG 1.1//EN" "http://www.w3.org/Graphics/SVG/1.1/DTD/svg11.dtd"><svg class="icon" width="50px" height="50.00px" viewBox="0 0 1024 1024" version="1.1" xmlns="http://www.w3.org/2000/svg"><path d="M692.053333 795.136l20.522667 43.584a1749.056 1749.056 0 0 1-402.026667 0l20.522667-43.584a34.261333 34.261333 0 0 0-59.264-34.005333l-76.373333 111.253333c-20.586667 29.973333 0.896 70.762667 37.248 70.762667 17.493333 0 33.429333-10.112 40.896-25.941334a18.56 18.56 0 0 1 16.810666-10.666666l38.272 4.053333c121.6 12.778667 244.202667 12.778667 365.802667 0l38.293333-4.053333a18.56 18.56 0 0 1 16.789334 10.666666 45.205333 45.205333 0 0 0 40.896 25.941334c36.373333 0 57.813333-40.789333 37.248-70.762667l-76.373334-111.253333a34.261333 34.261333 0 0 0-59.264 34.005333" fill="#458276" /><path d="M104.746667 284.586667v345.6c0 92.821333 74.026667 170.709333 171.050666 179.456 172.736 15.594667 298.794667 15.594667 471.530667 0 97.045333-8.746667 171.072-86.613333 171.072-179.477334V284.586667c0-92.842667-74.026667-182.677333-171.072-191.445334-172.736-15.573333-298.794667-15.573333-471.530667 0-97.045333 8.746667-171.072 98.602667-171.072 191.445334" fill="#529E90" /><path d="M210.837333 275.733333v89.109334c0 48.96 39.04 90.026667 90.24 94.656 91.093333 8.213333 329.898667 8.213333 420.992 0 51.2-4.608 90.24-45.696 90.24-94.656v-89.109334c0-48.981333-39.04-90.026667-90.24-94.656-91.093333-8.234667-329.92-8.234667-421.013333 0-51.178667 4.629333-90.218667 45.674667-90.218667 94.656M376.085333 629.610667a82.624 82.624 0 1 1-165.248 0 82.624 82.624 0 0 1 165.248 0M812.288 629.610667a82.624 82.624 0 1 1-165.248 0 82.624 82.624 0 0 1 165.248 0" fill="#60D1C0" fill-opacity=".8" /></svg>