<?xml version="1.0" standalone="no"?><!DOCTYPE svg PUBLIC "-//W3C//DTD SVG 1.1//EN" "http://www.w3.org/Graphics/SVG/1.1/DTD/svg11.dtd"><svg class="icon" width="50px" height="50.00px" viewBox="0 0 1024 1024" version="1.1" xmlns="http://www.w3.org/2000/svg"><path d="M788.5 224.3h176.9v730c0 37.7-28.7 66.4-66.4 66.4H191.4c-37.7 0-66.4-28.7-66.4-66.4V69.7c0-37.7 28.7-66.4 66.4-66.4h553.1v176.9h44.1v44.1z m-66.4-22v-177H191.4c-24.5 0-44.4 19.9-44.4 44.4v884.6c0 24.5 19.9 44.4 44.4 44.4H899c24.5 0 44.4-19.9 44.4-44.4v-708H766.5v-44.4h-44.4v0.4z" fill="#9FA0A6" /><path d="M213.4 887.9H877v44.4H213.4zM213.4 777.4H877v44.4H213.4zM213.4 666.6H877V711H213.4z" fill="#9FA0A6" /><path d="M102.9 113.8h353.8c24.5 0 44.4 19.9 44.4 44.4V512c0 24.5-19.9 44.4-44.4 44.4H102.9c-24.5 0-44.4-19.9-44.4-44.4V157.9c0.3-24.2 20.3-44.1 44.4-44.1z" fill="#A40FA8" /><path d="M355.3 387c0 20.2-20.2 39.9-44.4 42.9-24.8 3-44.4-9.7-44.4-30.8 0-20.2 20.2-39.9 44.4-42.9 16.6-2.1 26.3 3.6 26.3 3.6V282c0-9.7-10.6-6-10.6-6l-91.5 29.9s-10.6 3.6-10.6 12.7v96.9c0 20.2-18.1 39.9-42.9 42.9-24.8 3.6-44.4-9.1-44.4-29.3 0-20.2 19.6-39.9 44.4-43.5 16.6-2.1 24.2 3 24.2 3V275.3c0-12.7 9.7-26.3 22.6-29.9L332 212.5c12.7-3.6 22.6 3.6 22.6 17.2v157.6h0.6l0.1-0.3z" fill="#FFFFFF" /></svg>