<?xml version="1.0" standalone="no"?><!DOCTYPE svg PUBLIC "-//W3C//DTD SVG 1.1//EN" "http://www.w3.org/Graphics/SVG/1.1/DTD/svg11.dtd"><svg t="1562298050052" class="icon" viewBox="0 0 1024 1024" version="1.1" xmlns="http://www.w3.org/2000/svg" p-id="3238" xmlns:xlink="http://www.w3.org/1999/xlink" width="50" height="50"><defs><style type="text/css"></style></defs><path d="M821.6 32H744l168 184V134.4C912 77.6 871.2 32 821.6 32z" fill="#E54B9B" p-id="3239"></path><path d="M752 208c-4-4-6.4-9.6-8-15.2V32H234.4C184.8 32 144 77.6 144 134.4v755.2c0 56.8 40.8 102.4 90.4 102.4h587.2c49.6 0 90.4-45.6 90.4-102.4V216H767.2c-5.6-0.8-11.2-4-15.2-8zM560 632c0 8.8-7.2 16-16 16H272c-8.8 0-16-7.2-16-16s7.2-16 16-16h272c8.8 0 16 7.2 16 16zM306.4 160.8h19.2l56 137.6h-20.8l-16-41.6H288l-15.2 41.6h-19.2l52.8-137.6zM672 792H272c-8.8 0-16-7.2-16-16s7.2-16 16-16h400c8.8 0 16 7.2 16 16s-7.2 16-16 16z" fill="#E54B9B" p-id="3240"></path><path d="M325.6 203.2c-4-11.2-8-20.8-9.6-28.8-1.6 8.8-4 17.6-7.2 26.4l-15.2 40h46.4l-14.4-37.6z" fill="#E54B9B" p-id="3241"></path><path d="M288 256h57.6l16 41.6h20.8l-56-137.6h-19.2l-52.8 137.6h19.2L288 256z m20.8-54.4c3.2-8.8 5.6-17.6 7.2-26.4l9.6 28.8 14.4 38.4h-46.4l15.2-40.8z" fill="#FFFFFF" p-id="3242"></path><path d="M744 192.8c1.6 5.6 4 11.2 8 15.2s9.6 7.2 15.2 8H912L744 32v160.8z" fill="#F4D576" p-id="3243"></path><path d="M256 632c0 8.8 7.2 16 16 16h272c8.8 0 16-7.2 16-16s-7.2-16-16-16H272c-8.8 0-16 7.2-16 16z" fill="#FFFFFF" p-id="3244"></path><path d="M672 760H272c-8.8 0-16 7.2-16 16s7.2 16 16 16h400c8.8 0 16-7.2 16-16s-7.2-16-16-16z" fill="#F4D576" p-id="3245"></path></svg>