<?xml version="1.0" standalone="no"?><!DOCTYPE svg PUBLIC "-//W3C//DTD SVG 1.1//EN" "http://www.w3.org/Graphics/SVG/1.1/DTD/svg11.dtd"><svg t="1562298058987" class="icon" viewBox="0 0 1024 1024" version="1.1" xmlns="http://www.w3.org/2000/svg" p-id="3367" xmlns:xlink="http://www.w3.org/1999/xlink" width="50" height="50"><defs><style type="text/css"></style></defs><path d="M944 80H219.2c-8.8 0-16 7.2-16 16v103.2h592.8c8.8 0 16 7.2 16 16v617.6H944c8.8 0 16-7.2 16-16V96c0-8.8-7.2-16-16-16z" fill="#3FA7F7" p-id="3368"></path><path d="M436.8 557.6h12.8v-8H488v-36.8h-43.2c-3.2 5.6-5.6 11.2-8.8 16v28.8z" fill="#E54B9B" p-id="3369"></path><path d="M796.8 199.2H72c-8.8 0-16 7.2-16 16V936c0 8.8 7.2 16 16 16h724.8c8.8 0 16-7.2 16-16V215.2c0-8.8-7.2-16-16-16zM360.8 681.6c-79.2 15.2-110.4 25.6-132.8 36.8-0.8-14.4-3.2-30.4-7.2-47.2 30.4-0.8 69.6-6.4 142.4-24-4.8 9.6-4.8 24.8-2.4 34.4z m44 133.6v-64h32v64h-32z m131.2-184l30.4-15.2c21.6 27.2 40 56 57.6 84.8L587.2 720c-13.6-28.8-32-62.4-51.2-88.8z m212-84.8h64v32h-64v-32z m-128 0h64v32h-64v-32zM408.8 199.2h32v64h-32v-64z m0 128h32v64h-32v-64z m-280 254.4h-64v-32h64v32z m64-32h64v12.8c10.4-11.2 22.4-28.8 39.2-56l-27.2 2.4c-15.2 1.6-29.6 4-37.6 6.4-2.4-12-6.4-23.2-10.4-33.6 14.4-7.2 42.4-59.2 68-128.8 12 7.2 27.2 15.2 37.6 18.4 7.2 2.4 7.2 6.4 0.8 8.8-5.6 1.6-17.6 16-68 101.6l52.8-4c11.2-19.2 17.6-32 24.8-48 9.6 8.8 22.4 16 34.4 20.8 7.2 2.4 8.8 6.4 1.6 8-7.2 1.6-22.4 20-93.6 124.8 11.2-0.8 24.8-1.6 41.6-4v-30.4h44.8v-4h27.2c4-4.8 7.2-10.4 12-17.6v-14.4c-9.6 0.8-19.2 1.6-26.4 2.4v-34.4c8 0.8 17.6 1.6 30.4 2.4v-28.8h28.8c1.6-4 3.2-8.8 4.8-12.8-32 0-52.8 0.8-75.2 2.4v-35.2c23.2 2.4 45.6 3.2 85.6 4 7.2-22.4 11.2-38.4 13.6-61.6 11.2 4.8 35.2 12 48 14.4 7.2 1.6 7.2 6.4 0.8 10.4-7.2 3.2-16.8 19.2-24.8 36.8 58.4 0 88.8-0.8 119.2-4.8v36c-32-2.4-67.2-3.2-131.2-3.2-5.6 13.6-12 28-19.2 42.4 27.2-0.8 54.4-1.6 65.6-2.4-1.6 10.4-2.4 24.8-2.4 40.8v23.2h33.6v10.4c25.6-0.8 42.4-1.6 52-3.2v36.8c-15.2-1.6-40.8-2.4-85.6-3.2v97.6c0 54.4-5.6 59.2-61.6 68.8-3.2-14.4-9.6-28-19.2-42.4 40 5.6 47.2 2.4 47.2-18.4v-104c-16 0-32 0.8-47.2 2.4v31.2c6.4 3.2 12.8 5.6 20.8 8 4.8 1.6 5.6 5.6-0.8 7.2-5.6 1.6-10.4 5.6-23.2 22.4-0.8 0.8-0.8 1.6-1.6 2.4v26.4h-20c-10.4 14.4-22.4 29.6-33.6 44-9.6-8-19.2-13.6-32-18.4 21.6-20.8 40-44 53.6-65.6v-24h4.8V592c-9.6 0.8-18.4 2.4-23.2 3.2-0.8-4.8-1.6-9.6-3.2-13.6h-28c-1.6 8.8-1.6 17.6-1.6 25.6l-71.2 4.8c-20 1.6-36 4-44 7.2 0.8-12.8-2.4-27.2-8.8-36.8 0.8 0 1.6-0.8 1.6-0.8h-38.4v-32z m244 393.6h-32v-64h32v64z" fill="#E54B9B" p-id="3370"></path><path d="M408.8 327.2h32v64h-32z" fill="#E54B9B" p-id="3371"></path><path d="M408.8 327.2h32v64h-32z" fill="#FFFFFF" opacity=".5" p-id="3372"></path><path d="M408.8 623.2h8.8c1.6-4 3.2-7.2 4.8-11.2 5.6 3.2 12 6.4 18.4 9.6v-31.2c-12 0.8-22.4 1.6-32 2.4v30.4z" fill="#E54B9B" p-id="3373"></path><path d="M408.8 623.2h8.8c1.6-4 3.2-7.2 4.8-11.2 5.6 3.2 12 6.4 18.4 9.6v-31.2c-12 0.8-22.4 1.6-32 2.4v30.4z" fill="#FFFFFF" opacity=".5" p-id="3374"></path><path d="M408.8 199.2h32v64h-32z" fill="#E54B9B" p-id="3375"></path><path d="M408.8 199.2h32v64h-32z" fill="#FFFFFF" opacity=".5" p-id="3376"></path><path d="M437.6 455.2h-28.8v28.8c4.8 0 10.4 0.8 16.8 0.8 4-8.8 8-18.4 12-29.6z" fill="#E54B9B" p-id="3377"></path><path d="M437.6 455.2h-28.8v28.8c4.8 0 10.4 0.8 16.8 0.8 4-8.8 8-18.4 12-29.6z" fill="#FFFFFF" opacity=".5" p-id="3378"></path><path d="M64.8 549.6h64v32h-64z" fill="#E54B9B" p-id="3379"></path><path d="M64.8 549.6h64v32h-64z" fill="#FFFFFF" opacity=".5" p-id="3380"></path><path d="M232 581.6c7.2-3.2 15.2-8 25.6-19.2v-12.8h-64v32H232z" fill="#E54B9B" p-id="3381"></path><path d="M232 581.6c7.2-3.2 15.2-8 25.6-19.2v-12.8h-64v32H232z" fill="#FFFFFF" opacity=".5" p-id="3382"></path><path d="M448.8 549.6H488v8h-39.2z" fill="#E54B9B" p-id="3383"></path><path d="M448.8 549.6H488v8h-39.2z" fill="#FFFFFF" opacity=".5" p-id="3384"></path><path d="M355.2 581.6h28c0-1.6-0.8-2.4-0.8-4h-16v-28h-44.8v30.4c10.4-0.8 22.4-2.4 35.2-4-0.8 1.6-1.6 4-1.6 5.6z" fill="#E54B9B" p-id="3385"></path><path d="M355.2 581.6h28c0-1.6-0.8-2.4-0.8-4h-16v-28h-44.8v30.4c10.4-0.8 22.4-2.4 35.2-4-0.8 1.6-1.6 4-1.6 5.6z" fill="#FFFFFF" opacity=".5" p-id="3386"></path><path d="M404.8 879.2h32v64h-32z" fill="#E54B9B" p-id="3387"></path><path d="M404.8 879.2h32v64h-32z" fill="#FFFFFF" opacity=".5" p-id="3388"></path><path d="M408.8 623.2h-4.8v24l4.8-7.2v-16.8z" fill="#E54B9B" p-id="3389"></path><path d="M408.8 623.2h-4.8v24l4.8-7.2v-16.8z" fill="#FFFFFF" opacity=".5" p-id="3390"></path><path d="M436.8 687.2v-26.4c-5.6 8-12.8 16.8-20 26.4h20z" fill="#E54B9B" p-id="3391"></path><path d="M436.8 687.2v-26.4c-5.6 8-12.8 16.8-20 26.4h20z" fill="#FFFFFF" opacity=".5" p-id="3392"></path><path d="M404.8 751.2h32v64h-32z" fill="#E54B9B" p-id="3393"></path><path d="M404.8 751.2h32v64h-32z" fill="#FFFFFF" opacity=".5" p-id="3394"></path><path d="M426.4 546.4h1.6v11.2h8v-28c-2.4 5.6-6.4 11.2-9.6 16.8z" fill="#E54B9B" p-id="3395"></path><path d="M426.4 546.4h1.6v11.2h8v-28c-2.4 5.6-6.4 11.2-9.6 16.8z" fill="#FFFFFF" opacity=".5" p-id="3396"></path><path d="M408.8 519.2v-5.6h-4.8V528c2.4-2.4 4-5.6 4.8-8.8z" fill="#E54B9B" p-id="3397"></path><path d="M408.8 519.2v-5.6h-4.8V528c2.4-2.4 4-5.6 4.8-8.8z" fill="#FFFFFF" opacity=".5" p-id="3398"></path><path d="M409.6 519.2c0.8-1.6 1.6-4 3.2-5.6h-3.2v5.6z" fill="#E54B9B" p-id="3399"></path><path d="M409.6 519.2c0.8-1.6 1.6-4 3.2-5.6h-3.2v5.6z" fill="#FFFFFF" opacity=".5" p-id="3400"></path><path d="M409.6 519.2c0.8-1.6 1.6-4 3.2-5.6h-3.2v5.6z" fill="#FFFFFF" opacity=".5" p-id="3401"></path><path d="M417.6 623.2h-8.8V640c3.2-6.4 6.4-12 8.8-16.8z" fill="#E54B9B" p-id="3402"></path><path d="M417.6 623.2h-8.8V640c3.2-6.4 6.4-12 8.8-16.8z" fill="#FFFFFF" opacity=".5" p-id="3403"></path><path d="M417.6 623.2h-8.8V640c3.2-6.4 6.4-12 8.8-16.8z" fill="#FFFFFF" opacity=".5" p-id="3404"></path><path d="M748 546.4h64v32h-64z" fill="#E54B9B" p-id="3405"></path><path d="M748 546.4h64v32h-64z" fill="#FFFFFF" opacity=".5" p-id="3406"></path><path d="M556 556.8v-10.4h-33.6v11.2c12.8 0 24-0.8 33.6-0.8z" fill="#E54B9B" p-id="3407"></path><path d="M556 556.8v-10.4h-33.6v11.2c12.8 0 24-0.8 33.6-0.8z" fill="#FFFFFF" opacity=".5" p-id="3408"></path><path d="M620 546.4h64v32h-64z" fill="#E54B9B" p-id="3409"></path><path d="M620 546.4h64v32h-64z" fill="#FFFFFF" opacity=".5" p-id="3410"></path><path d="M384.8 554.4c2.4-2.4 4.8-4.8 7.2-8h-27.2v4H384v4z" fill="#E54B9B" p-id="3411"></path><path d="M384.8 554.4c2.4-2.4 4.8-4.8 7.2-8h-27.2v4H384v4z" fill="#FFFFFF" opacity=".5" p-id="3412"></path><path d="M381.6 578.4c-1.6-5.6-4.8-11.2-7.2-16 3.2-2.4 7.2-4.8 10.4-8v-4.8h-19.2v28h16z" fill="#E54B9B" p-id="3413"></path><path d="M381.6 578.4c-1.6-5.6-4.8-11.2-7.2-16 3.2-2.4 7.2-4.8 10.4-8v-4.8h-19.2v28h16z" fill="#FFFFFF" opacity=".5" p-id="3414"></path><path d="M381.6 578.4c-1.6-5.6-4.8-11.2-7.2-16 3.2-2.4 7.2-4.8 10.4-8v-4.8h-19.2v28h16z" fill="#FFFFFF" opacity=".5" p-id="3415"></path><path d="M426.4 546.4c-2.4 4-5.6 8-8 11.2h9.6v-11.2h-1.6z" fill="#E54B9B" p-id="3416"></path><path d="M426.4 546.4c-2.4 4-5.6 8-8 11.2h9.6v-11.2h-1.6z" fill="#FFFFFF" opacity=".5" p-id="3417"></path><path d="M426.4 546.4c-2.4 4-5.6 8-8 11.2h9.6v-11.2h-1.6z" fill="#FFFFFF" opacity=".5" p-id="3418"></path><path d="M566.4 616L536 631.2c19.2 27.2 37.6 60 51.2 89.6l36.8-19.2c-16.8-29.6-36-58.4-57.6-85.6zM220.8 670.4c4 16.8 6.4 32.8 7.2 47.2 22.4-11.2 53.6-20.8 132.8-36.8-2.4-9.6-2.4-24.8 1.6-34.4-72.8 17.6-112 23.2-141.6 24zM417.6 623.2c-2.4 5.6-5.6 11.2-8.8 16.8l-4.8 7.2c-13.6 22.4-32 44.8-53.6 65.6 12.8 4.8 22.4 10.4 32 18.4 11.2-14.4 22.4-29.6 33.6-44 7.2-9.6 14.4-19.2 20-26.4 0.8-0.8 0.8-1.6 1.6-2.4 12-16.8 17.6-20 23.2-22.4 5.6-1.6 5.6-5.6 0.8-7.2-7.2-2.4-14.4-4.8-20.8-8-6.4-2.4-12-5.6-18.4-9.6-0.8 4-2.4 8-4.8 12zM232 581.6c-0.8 0-1.6 0.8-1.6 0.8 6.4 9.6 9.6 24 8.8 36.8 7.2-3.2 23.2-5.6 44-7.2l71.2-4.8c0-8 0-17.6 1.6-25.6 0-1.6 0.8-4 1.6-5.6-12.8 1.6-24.8 3.2-35.2 4-16.8 1.6-30.4 3.2-41.6 4C352 479.2 366.4 460.8 374.4 459.2c7.2-1.6 5.6-5.6-1.6-8-11.2-4.8-24-12-34.4-20.8-7.2 16-13.6 28.8-24.8 48l-52.8 4c51.2-85.6 63.2-100 68-101.6 6.4-2.4 6.4-6.4-0.8-8.8-10.4-3.2-25.6-11.2-37.6-18.4-25.6 69.6-53.6 120.8-68 128.8 4 10.4 7.2 20.8 10.4 33.6 8-2.4 22.4-4.8 37.6-6.4l27.2-2.4c-16 27.2-28.8 44.8-39.2 56-11.2 10.4-19.2 16-26.4 18.4z" fill="#F4D576" p-id="3419"></path><path d="M384.8 554.4c-4 3.2-7.2 5.6-10.4 8 3.2 4.8 5.6 10.4 7.2 16 0.8 1.6 0.8 2.4 0.8 4 1.6 4.8 2.4 9.6 3.2 13.6 4.8-0.8 12.8-2.4 23.2-3.2 9.6-0.8 20-1.6 32-2.4 15.2-0.8 32-1.6 47.2-2.4v104.8c0 20.8-6.4 24-47.2 18.4 10.4 15.2 16 28.8 19.2 42.4 56-9.6 61.6-14.4 61.6-68.8V587.2c44.8 0.8 71.2 1.6 85.6 3.2v-36.8c-9.6 1.6-26.4 2.4-52 3.2-9.6 0-20.8 0.8-33.6 0.8v-34.4c0-16 0.8-30.4 2.4-40.8-11.2 1.6-38.4 2.4-65.6 2.4 7.2-14.4 13.6-28.8 19.2-42.4 64 0 98.4 0.8 131.2 3.2v-36c-30.4 4-60.8 4.8-119.2 4.8 8-16.8 17.6-32.8 24.8-36.8 7.2-3.2 7.2-8.8-0.8-10.4-12.8-2.4-36-9.6-48-14.4-1.6 23.2-5.6 39.2-13.6 61.6-40-0.8-63.2-1.6-85.6-4v35.2c22.4-1.6 42.4-2.4 75.2-2.4-1.6 4.8-3.2 8.8-4.8 12.8-4 11.2-8.8 20.8-12 29.6-5.6 0-11.2 0-16.8-0.8-12.8-0.8-23.2-1.6-30.4-2.4v34.4c7.2-0.8 16.8-1.6 26.4-2.4h8c-0.8 1.6-1.6 4-3.2 5.6-1.6 3.2-3.2 6.4-4.8 8.8-4 7.2-8 13.6-12 17.6-1.6 3.2-4 5.6-7.2 8z m60.8-40.8H488v44.8h-69.6c2.4-3.2 4.8-7.2 8-11.2 3.2-4.8 6.4-10.4 9.6-16 3.2-6.4 6.4-12 9.6-17.6z" fill="#F4D576" p-id="3420"></path></svg>