<?xml version="1.0" standalone="no"?><!DOCTYPE svg PUBLIC "-//W3C//DTD SVG 1.1//EN" "http://www.w3.org/Graphics/SVG/1.1/DTD/svg11.dtd"><svg class="icon" width="50px" height="50.00px" viewBox="0 0 1024 1024" version="1.1" xmlns="http://www.w3.org/2000/svg"><path d="M788.6 224.2h176.9v730.1c0 37.7-28.7 66.4-66.4 66.4H191.3c-37.7 0-66.4-28.7-66.4-66.4V69.7c0-37.7 28.7-66.4 66.4-66.4h553.2v176.9h44.1v44z m-66.4-22.3V25H191.3C166.9 25 147 44.9 147 69.4V954c0 24.5 19.9 44.4 44.4 44.4h707.8c24.5 0 44.4-19.9 44.4-44.4V246.3H766.5v-44.4h-44.3z" fill="#9FA0A6" /><path d="M213.4 887.9h663.7v44.4H213.4zM213.4 777.1h663.7v44.4H213.4zM213.4 666.6h663.7V711H213.4z" fill="#9FA0A6" /><path d="M102.9 113.4h353.9c24.5 0 44.4 19.9 44.4 44.4v353.9c0 24.5-19.9 44.4-44.4 44.4H102.9c-24.5 0-44.4-19.9-44.4-44.4V157.8c0-24.4 19.9-44.4 44.4-44.4z" fill="#4AA80E" /><path d="M175.3 438.3v-27.2c0-2.4 0.9-4.5 2.4-6.6l103-127.1c5.4-6.6 0.6-16.9-8.2-16.9h-73.4c-5.7 0-10.3-4.5-10.3-10.3v-17.5c0-5.7 4.5-10.3 10.3-10.3H344c5.7 0 10.3 4.5 10.3 10.3v21.4c0 2.4-0.9 4.8-2.4 6.6l-108 133.2c-5.4 6.6-0.6 16.9 8.2 16.9h96.6c5.7 0 10.3 4.5 10.3 10.3v17.5c0 5.7-4.5 10.3-10.3 10.3H185.3c-5.1-0.3-10-4.8-10-10.6z" fill="#FFFFFF" /></svg>